<svg width="18" height="21" viewBox="0 0 18 21" fill="none" xmlns="http://www.w3.org/2000/svg">
<path d="M13.7502 2.56V1C13.7502 0.59 13.4102 0.25 13.0002 0.25C12.5902 0.25 12.2502 0.59 12.2502 1V2.5H5.75023V1C5.75023 0.59 5.41023 0.25 5.00023 0.25C4.59023 0.25 4.25023 0.59 4.25023 1V2.56C1.55023 2.81 0.240229 4.42 0.0402292 6.81C0.0202292 7.1 0.260229 7.34 0.540229 7.34H17.4602C17.7502 7.34 17.9902 7.09 17.9602 6.81C17.7602 4.42 16.4502 2.81 13.7502 2.56Z" fill="#010202"/>
<path d="M17 8.83984H1C0.45 8.83984 0 9.28984 0 9.83984V15.9998C0 18.9998 1.5 20.9998 5 20.9998H13C16.5 20.9998 18 18.9998 18 15.9998V9.83984C18 9.28984 17.55 8.83984 17 8.83984ZM6.21 17.2098C6.11 17.2998 6 17.3698 5.88 17.4198C5.76 17.4698 5.63 17.4998 5.5 17.4998C5.37 17.4998 5.24 17.4698 5.12 17.4198C5 17.3698 4.89 17.2998 4.79 17.2098C4.61 17.0198 4.5 16.7598 4.5 16.4998C4.5 16.2398 4.61 15.9798 4.79 15.7898C4.89 15.6998 5 15.6298 5.12 15.5798C5.36346 15.4798 5.63654 15.4798 5.88 15.5798C6 15.6298 6.11 15.6998 6.21 15.7898C6.39 15.9798 6.5 16.2398 6.5 16.4998C6.5 16.7598 6.39 17.0198 6.21 17.2098ZM6.42 13.3798C6.37 13.4998 6.3 13.6098 6.21 13.7098C6.11 13.7998 6 13.8698 5.88 13.9198C5.76 13.9698 5.63 13.9998 5.5 13.9998C5.37 13.9998 5.24 13.9698 5.12 13.9198C5 13.8698 4.89 13.7998 4.79 13.7098C4.7 13.6098 4.63 13.4998 4.58 13.3798C4.52863 13.2597 4.50145 13.1305 4.5 12.9998C4.5 12.8698 4.53 12.7398 4.58 12.6198C4.63 12.4998 4.7 12.3898 4.79 12.2898C4.89 12.1998 5 12.1298 5.12 12.0798C5.36346 11.9798 5.63654 11.9798 5.88 12.0798C6 12.1298 6.11 12.1998 6.21 12.2898C6.3 12.3898 6.37 12.4998 6.42 12.6198C6.47 12.7398 6.5 12.8698 6.5 12.9998C6.5 13.1298 6.47 13.2598 6.42 13.3798ZM9.71 13.7098C9.61 13.7998 9.5 13.8698 9.38 13.9198C9.26 13.9698 9.13 13.9998 9 13.9998C8.87 13.9998 8.74 13.9698 8.62 13.9198C8.5 13.8698 8.39 13.7998 8.29 13.7098C8.11 13.5198 8 13.2598 8 12.9998C8 12.7398 8.11 12.4798 8.29 12.2898C8.39 12.1998 8.5 12.1298 8.62 12.0798C8.86 11.9698 9.14 11.9698 9.38 12.0798C9.5 12.1298 9.61 12.1998 9.71 12.2898C9.89 12.4798 10 12.7398 10 12.9998C10 13.2598 9.89 13.5198 9.71 13.7098Z" fill="#010202"/>
</svg>
