<svg width="18" height="21" viewBox="0 0 18 21" fill="none" xmlns="http://www.w3.org/2000/svg">
<path d="M17.6188 6.7C16.5788 2.07 12.5388 0 8.99877 0H8.98877C5.45877 0 1.42877 2.07 0.378774 6.69C-0.801226 11.85 2.35877 16.22 5.21877 18.98C6.2325 19.9612 7.58797 20.5098 8.99877 20.51C10.3588 20.51 11.7188 20 12.7688 18.98C15.6288 16.22 18.7888 11.86 17.6188 6.7ZM12.2788 7.53L8.27877 11.53C8.12877 11.68 7.93877 11.75 7.74877 11.75C7.55877 11.75 7.36877 11.68 7.21877 11.53L5.71877 10.03C5.57929 9.88886 5.50107 9.69843 5.50107 9.5C5.50107 9.30157 5.57929 9.11114 5.71877 8.97C6.00877 8.68 6.48877 8.68 6.77877 8.97L7.74877 9.94L11.2188 6.47C11.5088 6.18 11.9888 6.18 12.2788 6.47C12.5688 6.76 12.5688 7.24 12.2788 7.53Z" fill="#010202"/>
</svg>
