<svg width="1024" height="316" viewBox="0 0 1024 316" fill="none" xmlns="http://www.w3.org/2000/svg">
<mask id="path-1-outside-1_46_13547" maskUnits="userSpaceOnUse" x="-1" y="-1" width="1026" height="318" fill="black">
<rect fill="white" x="-1" y="-1" width="1026" height="318"/>
<path d="M77.1783 246H0.895597V10.3636H79.5945C102.683 10.3636 122.511 15.081 139.079 24.5156C155.647 33.8736 168.342 47.3352 177.163 64.9006C186.06 82.3892 190.509 103.368 190.509 127.837C190.509 152.382 186.022 173.476 177.048 191.118C168.15 208.76 155.263 222.337 138.388 231.848C121.513 241.283 101.11 246 77.1783 246ZM36.4482 214.935H75.2223C93.1712 214.935 108.09 211.56 119.979 204.81C131.869 197.983 140.766 188.126 146.673 175.24C152.579 162.277 155.532 146.476 155.532 127.837C155.532 109.351 152.579 93.6648 146.673 80.7784C140.843 67.892 132.137 58.1122 120.555 51.4389C108.972 44.7656 94.5902 41.429 77.4084 41.429H36.4482V214.935ZM308.126 249.567C290.714 249.567 275.718 245.847 263.139 238.406C250.636 230.889 240.971 220.342 234.145 206.766C227.395 193.112 224.02 177.119 224.02 158.787C224.02 140.685 227.395 124.73 234.145 110.923C240.971 97.1165 250.483 86.3395 262.679 78.5923C274.951 70.8452 289.295 66.9716 305.71 66.9716C315.681 66.9716 325.346 68.6207 334.704 71.919C344.062 75.2173 352.461 80.3949 359.902 87.4517C367.342 94.5085 373.21 103.675 377.505 114.95C381.801 126.149 383.949 139.764 383.949 155.795V167.991H243.464V142.219H350.237C350.237 133.168 348.396 125.152 344.714 118.172C341.032 111.115 335.855 105.554 329.181 101.489C322.585 97.4233 314.838 95.3906 305.94 95.3906C296.275 95.3906 287.838 97.7685 280.627 102.524C273.494 107.203 267.971 113.339 264.059 120.933C260.224 128.45 258.306 136.619 258.306 145.44V165.575C258.306 177.388 260.377 187.436 264.52 195.72C268.738 204.004 274.606 210.332 282.123 214.705C289.64 219 298.423 221.148 308.471 221.148C314.991 221.148 320.936 220.227 326.305 218.386C331.674 216.469 336.315 213.631 340.227 209.872C344.139 206.114 347.13 201.473 349.201 195.95L381.762 201.818C379.154 211.406 374.475 219.805 367.725 227.016C361.052 234.149 352.653 239.71 342.528 243.699C332.48 247.611 321.012 249.567 308.126 249.567ZM554.549 112.419L523.369 117.942C522.065 113.953 519.994 110.156 517.156 106.551C514.394 102.946 510.636 99.9929 505.88 97.6918C501.124 95.3906 495.18 94.2401 488.046 94.2401C478.305 94.2401 470.174 96.4261 463.654 100.798C457.134 105.094 453.874 110.655 453.874 117.482C453.874 123.388 456.06 128.143 460.433 131.749C464.805 135.354 471.862 138.307 481.603 140.608L509.677 147.051C525.938 150.81 538.058 156.601 546.035 164.425C554.012 172.249 558.001 182.412 558.001 194.915C558.001 205.5 554.933 214.935 548.796 223.219C542.737 231.426 534.261 237.869 523.369 242.548C512.553 247.227 500.012 249.567 485.745 249.567C465.955 249.567 449.809 245.348 437.306 236.911C424.803 228.396 417.133 216.315 414.295 200.668L447.546 195.605C449.617 204.273 453.874 210.831 460.317 215.28C466.761 219.652 475.16 221.838 485.515 221.838C496.79 221.838 505.803 219.499 512.553 214.82C519.303 210.064 522.678 204.273 522.678 197.446C522.678 191.923 520.607 187.283 516.465 183.524C512.4 179.766 506.148 176.928 497.711 175.01L467.796 168.452C451.305 164.693 439.109 158.71 431.208 150.503C423.384 142.295 419.472 131.902 419.472 119.322C419.472 108.891 422.387 99.7628 428.217 91.9389C434.046 84.1151 442.1 78.017 452.379 73.6449C462.657 69.196 474.431 66.9716 487.701 66.9716C506.8 66.9716 521.835 71.1136 532.803 79.3977C543.772 87.6051 551.021 98.6122 554.549 112.419ZM595.826 246V69.2727H630.228V246H595.826ZM613.199 42.0043C607.216 42.0043 602.077 40.0099 597.782 36.0213C593.563 31.956 591.453 27.1236 591.453 21.5241C591.453 15.848 593.563 11.0156 597.782 7.02698C602.077 2.96164 607.216 0.928972 613.199 0.928972C619.182 0.928972 624.283 2.96164 628.502 7.02698C632.797 11.0156 634.945 15.848 634.945 21.5241C634.945 27.1236 632.797 31.956 628.502 36.0213C624.283 40.0099 619.182 42.0043 613.199 42.0043ZM750.606 315.955C736.569 315.955 724.488 314.114 714.363 310.432C704.315 306.75 696.107 301.879 689.741 295.82C683.374 289.76 678.619 283.125 675.474 275.915L705.043 263.719C707.114 267.094 709.876 270.661 713.327 274.419C716.856 278.254 721.612 281.514 727.594 284.199C733.654 286.884 741.44 288.226 750.951 288.226C763.991 288.226 774.768 285.043 783.282 278.676C791.796 272.386 796.053 262.338 796.053 248.531V213.784H793.867C791.796 217.543 788.805 221.723 784.893 226.325C781.058 230.928 775.765 234.916 769.015 238.291C762.265 241.666 753.482 243.354 742.667 243.354C728.707 243.354 716.127 240.094 704.928 233.574C693.806 226.977 684.985 217.274 678.465 204.464C672.022 191.578 668.8 175.739 668.8 156.946C668.8 138.153 671.984 122.045 678.35 108.622C684.793 95.1989 693.614 84.9205 704.813 77.7869C716.012 70.5767 728.707 66.9716 742.897 66.9716C753.866 66.9716 762.725 68.8125 769.475 72.4943C776.225 76.0994 781.479 80.3182 785.238 85.1506C789.073 89.983 792.026 94.2401 794.097 97.9219H796.629V69.2727H830.34V249.912C830.34 265.099 826.812 277.564 819.755 287.305C812.698 297.047 803.148 304.257 791.106 308.936C779.14 313.615 765.64 315.955 750.606 315.955ZM750.261 214.82C760.156 214.82 768.516 212.518 775.343 207.916C782.246 203.237 787.462 196.564 790.991 187.896C794.596 179.152 796.398 168.682 796.398 156.486C796.398 144.597 794.634 134.126 791.106 125.075C787.577 116.024 782.4 108.967 775.573 103.905C768.746 98.7656 760.309 96.196 750.261 96.196C739.906 96.196 731.276 98.8807 724.373 104.25C717.469 109.543 712.254 116.753 708.725 125.881C705.273 135.009 703.548 145.21 703.548 156.486C703.548 168.068 705.312 178.232 708.84 186.976C712.369 195.72 717.585 202.547 724.488 207.456C731.468 212.365 740.059 214.82 750.261 214.82ZM910.88 141.068V246H876.478V69.2727H909.499V98.0369H911.685C915.751 88.679 922.117 81.1619 930.785 75.4858C939.529 69.8097 950.536 66.9716 963.806 66.9716C975.849 66.9716 986.396 69.5028 995.447 74.5653C1004.5 79.5511 1011.52 86.9915 1016.5 96.8864C1021.49 106.781 1023.98 119.016 1023.98 133.589V246H989.579V137.732C989.579 124.922 986.242 114.912 979.569 107.702C972.896 100.415 963.729 96.7713 952.07 96.7713C944.093 96.7713 936.998 98.4972 930.785 101.949C924.648 105.401 919.778 110.463 916.173 117.136C912.644 123.733 910.88 131.71 910.88 141.068Z"/>
</mask>
<g filter="url(#filter0_i_46_13547)">
<path d="M77.1783 246H0.895597V10.3636H79.5945C102.683 10.3636 122.511 15.081 139.079 24.5156C155.647 33.8736 168.342 47.3352 177.163 64.9006C186.06 82.3892 190.509 103.368 190.509 127.837C190.509 152.382 186.022 173.476 177.048 191.118C168.15 208.76 155.263 222.337 138.388 231.848C121.513 241.283 101.11 246 77.1783 246ZM36.4482 214.935H75.2223C93.1712 214.935 108.09 211.56 119.979 204.81C131.869 197.983 140.766 188.126 146.673 175.24C152.579 162.277 155.532 146.476 155.532 127.837C155.532 109.351 152.579 93.6648 146.673 80.7784C140.843 67.892 132.137 58.1122 120.555 51.4389C108.972 44.7656 94.5902 41.429 77.4084 41.429H36.4482V214.935ZM308.126 249.567C290.714 249.567 275.718 245.847 263.139 238.406C250.636 230.889 240.971 220.342 234.145 206.766C227.395 193.112 224.02 177.119 224.02 158.787C224.02 140.685 227.395 124.73 234.145 110.923C240.971 97.1165 250.483 86.3395 262.679 78.5923C274.951 70.8452 289.295 66.9716 305.71 66.9716C315.681 66.9716 325.346 68.6207 334.704 71.919C344.062 75.2173 352.461 80.3949 359.902 87.4517C367.342 94.5085 373.21 103.675 377.505 114.95C381.801 126.149 383.949 139.764 383.949 155.795V167.991H243.464V142.219H350.237C350.237 133.168 348.396 125.152 344.714 118.172C341.032 111.115 335.855 105.554 329.181 101.489C322.585 97.4233 314.838 95.3906 305.94 95.3906C296.275 95.3906 287.838 97.7685 280.627 102.524C273.494 107.203 267.971 113.339 264.059 120.933C260.224 128.45 258.306 136.619 258.306 145.44V165.575C258.306 177.388 260.377 187.436 264.52 195.72C268.738 204.004 274.606 210.332 282.123 214.705C289.64 219 298.423 221.148 308.471 221.148C314.991 221.148 320.936 220.227 326.305 218.386C331.674 216.469 336.315 213.631 340.227 209.872C344.139 206.114 347.13 201.473 349.201 195.95L381.762 201.818C379.154 211.406 374.475 219.805 367.725 227.016C361.052 234.149 352.653 239.71 342.528 243.699C332.48 247.611 321.012 249.567 308.126 249.567ZM554.549 112.419L523.369 117.942C522.065 113.953 519.994 110.156 517.156 106.551C514.394 102.946 510.636 99.9929 505.88 97.6918C501.124 95.3906 495.18 94.2401 488.046 94.2401C478.305 94.2401 470.174 96.4261 463.654 100.798C457.134 105.094 453.874 110.655 453.874 117.482C453.874 123.388 456.06 128.143 460.433 131.749C464.805 135.354 471.862 138.307 481.603 140.608L509.677 147.051C525.938 150.81 538.058 156.601 546.035 164.425C554.012 172.249 558.001 182.412 558.001 194.915C558.001 205.5 554.933 214.935 548.796 223.219C542.737 231.426 534.261 237.869 523.369 242.548C512.553 247.227 500.012 249.567 485.745 249.567C465.955 249.567 449.809 245.348 437.306 236.911C424.803 228.396 417.133 216.315 414.295 200.668L447.546 195.605C449.617 204.273 453.874 210.831 460.317 215.28C466.761 219.652 475.16 221.838 485.515 221.838C496.79 221.838 505.803 219.499 512.553 214.82C519.303 210.064 522.678 204.273 522.678 197.446C522.678 191.923 520.607 187.283 516.465 183.524C512.4 179.766 506.148 176.928 497.711 175.01L467.796 168.452C451.305 164.693 439.109 158.71 431.208 150.503C423.384 142.295 419.472 131.902 419.472 119.322C419.472 108.891 422.387 99.7628 428.217 91.9389C434.046 84.1151 442.1 78.017 452.379 73.6449C462.657 69.196 474.431 66.9716 487.701 66.9716C506.8 66.9716 521.835 71.1136 532.803 79.3977C543.772 87.6051 551.021 98.6122 554.549 112.419ZM595.826 246V69.2727H630.228V246H595.826ZM613.199 42.0043C607.216 42.0043 602.077 40.0099 597.782 36.0213C593.563 31.956 591.453 27.1236 591.453 21.5241C591.453 15.848 593.563 11.0156 597.782 7.02698C602.077 2.96164 607.216 0.928972 613.199 0.928972C619.182 0.928972 624.283 2.96164 628.502 7.02698C632.797 11.0156 634.945 15.848 634.945 21.5241C634.945 27.1236 632.797 31.956 628.502 36.0213C624.283 40.0099 619.182 42.0043 613.199 42.0043ZM750.606 315.955C736.569 315.955 724.488 314.114 714.363 310.432C704.315 306.75 696.107 301.879 689.741 295.82C683.374 289.76 678.619 283.125 675.474 275.915L705.043 263.719C707.114 267.094 709.876 270.661 713.327 274.419C716.856 278.254 721.612 281.514 727.594 284.199C733.654 286.884 741.44 288.226 750.951 288.226C763.991 288.226 774.768 285.043 783.282 278.676C791.796 272.386 796.053 262.338 796.053 248.531V213.784H793.867C791.796 217.543 788.805 221.723 784.893 226.325C781.058 230.928 775.765 234.916 769.015 238.291C762.265 241.666 753.482 243.354 742.667 243.354C728.707 243.354 716.127 240.094 704.928 233.574C693.806 226.977 684.985 217.274 678.465 204.464C672.022 191.578 668.8 175.739 668.8 156.946C668.8 138.153 671.984 122.045 678.35 108.622C684.793 95.1989 693.614 84.9205 704.813 77.7869C716.012 70.5767 728.707 66.9716 742.897 66.9716C753.866 66.9716 762.725 68.8125 769.475 72.4943C776.225 76.0994 781.479 80.3182 785.238 85.1506C789.073 89.983 792.026 94.2401 794.097 97.9219H796.629V69.2727H830.34V249.912C830.34 265.099 826.812 277.564 819.755 287.305C812.698 297.047 803.148 304.257 791.106 308.936C779.14 313.615 765.64 315.955 750.606 315.955ZM750.261 214.82C760.156 214.82 768.516 212.518 775.343 207.916C782.246 203.237 787.462 196.564 790.991 187.896C794.596 179.152 796.398 168.682 796.398 156.486C796.398 144.597 794.634 134.126 791.106 125.075C787.577 116.024 782.4 108.967 775.573 103.905C768.746 98.7656 760.309 96.196 750.261 96.196C739.906 96.196 731.276 98.8807 724.373 104.25C717.469 109.543 712.254 116.753 708.725 125.881C705.273 135.009 703.548 145.21 703.548 156.486C703.548 168.068 705.312 178.232 708.84 186.976C712.369 195.72 717.585 202.547 724.488 207.456C731.468 212.365 740.059 214.82 750.261 214.82ZM910.88 141.068V246H876.478V69.2727H909.499V98.0369H911.685C915.751 88.679 922.117 81.1619 930.785 75.4858C939.529 69.8097 950.536 66.9716 963.806 66.9716C975.849 66.9716 986.396 69.5028 995.447 74.5653C1004.5 79.5511 1011.52 86.9915 1016.5 96.8864C1021.49 106.781 1023.98 119.016 1023.98 133.589V246H989.579V137.732C989.579 124.922 986.242 114.912 979.569 107.702C972.896 100.415 963.729 96.7713 952.07 96.7713C944.093 96.7713 936.998 98.4972 930.785 101.949C924.648 105.401 919.778 110.463 916.173 117.136C912.644 123.733 910.88 131.71 910.88 141.068Z" fill="white"/>
</g>
<path d="M0.895599 246H-0.104401V247H0.895599V246ZM0.895599 10.3636V9.36363H-0.104401V10.3636H0.895599ZM139.079 24.5156L138.584 25.3846L138.587 25.3863L139.079 24.5156ZM177.163 64.9006L176.269 65.3493L176.271 65.354L177.163 64.9006ZM177.048 191.118L176.156 190.664L176.155 190.668L177.048 191.118ZM138.388 231.848L138.876 232.721L138.88 232.719L138.388 231.848ZM36.4482 214.935H35.4482V215.935H36.4482V214.935ZM119.979 204.81L120.473 205.679L120.477 205.677L119.979 204.81ZM146.673 175.24L147.582 175.657L147.583 175.655L146.673 175.24ZM146.673 80.7784L145.761 81.1906L145.764 81.1951L146.673 80.7784ZM120.555 51.4389L120.055 52.3054L120.555 51.4389ZM36.4482 41.429V40.429H35.4482V41.429H36.4482ZM77.1783 245H0.895599V247H77.1783V245ZM1.8956 246V10.3636H-0.104401V246H1.8956ZM0.895599 11.3636H79.5945V9.36363H0.895599V11.3636ZM79.5945 11.3636C102.546 11.3636 122.195 16.0522 138.584 25.3846L139.574 23.6466C122.826 14.1097 102.82 9.36363 79.5945 9.36363V11.3636ZM138.587 25.3863C154.976 34.6433 167.534 47.9552 176.269 65.3493L178.056 64.4518C169.149 46.7152 156.318 33.1039 139.571 23.6449L138.587 25.3863ZM176.271 65.354C185.082 82.6718 189.509 103.487 189.509 127.837H191.509C191.509 103.248 187.039 82.1066 178.054 64.4471L176.271 65.354ZM189.509 127.837C189.509 152.262 185.044 173.193 176.156 190.664L177.939 191.571C187 173.759 191.509 152.503 191.509 127.837H189.509ZM176.155 190.668C167.344 208.136 154.596 221.565 137.897 230.977L138.88 232.719C155.931 223.108 168.955 209.384 177.94 191.568L176.155 190.668ZM137.901 230.975C121.206 240.309 100.979 245 77.1783 245V247C101.241 247 121.821 242.257 138.876 232.721L137.901 230.975ZM36.4482 215.935H75.2223V213.935H36.4482V215.935ZM75.2223 215.935C93.2917 215.935 108.393 212.537 120.473 205.679L119.486 203.94C107.787 210.582 93.0507 213.935 75.2223 213.935V215.935ZM120.477 205.677C132.554 198.743 141.592 188.726 147.582 175.657L145.764 174.823C139.941 187.527 131.184 197.223 119.481 203.942L120.477 205.677ZM147.583 175.655C153.563 162.528 156.532 146.577 156.532 127.837H154.532C154.532 146.375 151.594 162.026 145.763 174.825L147.583 175.655ZM156.532 127.837C156.532 109.249 153.563 93.4122 147.582 80.3618L145.764 81.1951C151.595 93.9173 154.532 109.453 154.532 127.837H156.532ZM147.584 80.3662C141.673 67.3008 132.829 57.3566 121.054 50.5724L120.055 52.3054C131.445 58.8678 140.013 68.4833 145.761 81.1906L147.584 80.3662ZM121.054 50.5724C109.282 43.7901 94.7165 40.429 77.4084 40.429V42.429C94.4639 42.429 108.662 45.7411 120.055 52.3054L121.054 50.5724ZM77.4084 40.429H36.4482V42.429H77.4084V40.429ZM35.4482 41.429V214.935H37.4482V41.429H35.4482ZM263.139 238.406L262.624 239.263L262.63 239.267L263.139 238.406ZM234.145 206.766L233.248 207.209L233.251 207.215L234.145 206.766ZM234.145 110.923L233.248 110.48L233.246 110.484L234.145 110.923ZM262.679 78.5923L262.145 77.7467L262.142 77.7482L262.679 78.5923ZM334.704 71.919L335.037 70.9759L334.704 71.919ZM359.902 87.4517L359.214 88.1773L359.902 87.4517ZM377.505 114.95L376.571 115.306L376.572 115.308L377.505 114.95ZM383.949 167.991V168.991H384.949V167.991H383.949ZM243.464 167.991H242.464V168.991H243.464V167.991ZM243.464 142.219V141.219H242.464V142.219H243.464ZM350.237 142.219V143.219H351.237V142.219H350.237ZM344.714 118.172L343.828 118.634L343.83 118.638L344.714 118.172ZM329.181 101.489L328.657 102.34L328.661 102.343L329.181 101.489ZM280.628 102.524L281.176 103.36L281.178 103.359L280.628 102.524ZM264.059 120.933L263.17 120.475L263.169 120.479L264.059 120.933ZM264.52 195.72L263.625 196.167L263.628 196.174L264.52 195.72ZM282.123 214.705L281.62 215.569L281.627 215.573L282.123 214.705ZM326.305 218.386L326.629 219.332L326.641 219.328L326.305 218.386ZM340.227 209.872L339.534 209.151L340.227 209.872ZM349.201 195.95L349.379 194.966L348.558 194.818L348.265 195.599L349.201 195.95ZM381.762 201.818L382.727 202.081L383.014 201.028L381.94 200.834L381.762 201.818ZM367.726 227.016L366.995 226.332L366.995 226.332L367.726 227.016ZM342.528 243.699L342.891 244.631L342.895 244.629L342.528 243.699ZM308.126 248.567C290.859 248.567 276.046 244.879 263.648 237.546L262.63 239.267C275.391 246.815 290.569 250.567 308.126 250.567V248.567ZM263.654 237.549C251.32 230.134 241.783 219.732 235.038 206.316L233.251 207.215C240.159 220.953 249.952 231.645 262.624 239.263L263.654 237.549ZM235.041 206.322C228.372 192.832 225.02 176.997 225.02 158.787H223.02C223.02 177.242 226.417 193.392 233.248 207.209L235.041 206.322ZM225.02 158.787C225.02 140.81 228.371 125.01 235.043 111.363L233.246 110.484C226.418 124.45 223.02 140.559 223.02 158.787H225.02ZM235.041 111.367C241.792 97.7125 251.184 87.0789 263.215 79.4364L262.142 77.7482C249.782 85.6001 240.15 96.5204 233.248 110.48L235.041 111.367ZM263.212 79.4379C275.305 71.8044 289.459 67.9716 305.71 67.9716V65.9716C289.132 65.9716 274.598 69.8859 262.145 77.7467L263.212 79.4379ZM305.71 67.9716C315.569 67.9716 325.121 69.6017 334.372 72.8622L335.037 70.9759C325.571 67.6398 315.794 65.9716 305.71 65.9716V67.9716ZM334.372 72.8622C343.593 76.1122 351.872 81.2138 359.214 88.1773L360.59 86.7262C353.051 79.5759 344.532 74.3225 335.037 70.9759L334.372 72.8622ZM359.214 88.1773C366.527 95.1142 372.319 104.146 376.571 115.306L378.44 114.594C374.1 103.203 368.156 93.9028 360.59 86.7262L359.214 88.1773ZM376.572 115.308C380.811 126.362 382.949 139.848 382.949 155.795H384.949C384.949 139.681 382.79 125.937 378.439 114.592L376.572 115.308ZM382.949 155.795V167.991H384.949V155.795H382.949ZM383.949 166.991H243.464V168.991H383.949V166.991ZM244.464 167.991V142.219H242.464V167.991H244.464ZM243.464 143.219H350.237V141.219H243.464V143.219ZM351.237 142.219C351.237 133.029 349.367 124.849 345.599 117.705L343.83 118.638C347.425 125.455 349.237 133.306 349.237 142.219H351.237ZM345.601 117.709C341.836 110.494 336.534 104.797 329.702 100.635L328.661 102.343C335.176 106.311 340.228 111.736 343.828 118.634L345.601 117.709ZM329.706 100.637C322.93 96.461 314.995 94.3906 305.94 94.3906V96.3906C314.68 96.3906 322.24 98.3855 328.657 102.34L329.706 100.637ZM305.94 94.3906C296.104 94.3906 287.47 96.8134 280.077 101.689L281.178 103.359C288.206 98.7236 296.447 96.3906 305.94 96.3906V94.3906ZM280.079 101.688C272.801 106.462 267.161 112.728 263.17 120.475L264.948 121.391C268.781 113.951 274.187 107.945 281.176 103.36L280.079 101.688ZM263.169 120.479C259.258 128.143 257.306 136.469 257.306 145.44H259.306C259.306 136.77 261.19 128.758 264.95 121.388L263.169 120.479ZM257.306 145.44V165.575H259.306V145.44H257.306ZM257.306 165.575C257.306 177.502 259.397 187.712 263.625 196.167L265.414 195.273C261.358 187.161 259.306 177.274 259.306 165.575H257.306ZM263.628 196.174C267.928 204.617 273.926 211.093 281.62 215.569L282.626 213.84C275.287 209.571 269.548 203.391 265.411 195.266L263.628 196.174ZM281.627 215.573C289.318 219.968 298.277 222.148 308.471 222.148V220.148C298.569 220.148 289.963 218.032 282.619 213.836L281.627 215.573ZM308.471 222.148C315.085 222.148 321.141 221.214 326.629 219.332L325.981 217.44C320.73 219.241 314.897 220.148 308.471 220.148V222.148ZM326.641 219.328C332.137 217.365 336.901 214.455 340.92 210.593L339.534 209.151C335.729 212.807 331.212 215.572 325.969 217.445L326.641 219.328ZM340.92 210.593C344.949 206.722 348.019 201.952 350.138 196.301L348.265 195.599C346.242 200.994 343.329 205.505 339.534 209.151L340.92 210.593ZM349.024 196.934L381.585 202.802L381.94 200.834L349.379 194.966L349.024 196.934ZM380.797 201.556C378.232 210.987 373.633 219.242 366.995 226.332L368.456 227.699C375.318 220.369 380.077 211.825 382.727 202.081L380.797 201.556ZM366.995 226.332C360.434 233.346 352.164 238.828 342.162 242.768L342.895 244.629C353.142 240.592 361.67 234.953 368.456 227.699L366.995 226.332ZM342.165 242.767C332.253 246.626 320.912 248.567 308.126 248.567V250.567C321.113 250.567 332.707 248.596 342.891 244.631L342.165 242.767ZM554.549 112.419L554.723 113.404L555.785 113.216L555.518 112.171L554.549 112.419ZM523.369 117.942L522.418 118.252L522.688 119.078L523.543 118.926L523.369 117.942ZM517.156 106.551L516.362 107.159L516.37 107.17L517.156 106.551ZM505.88 97.6918L506.316 96.7916L505.88 97.6918ZM463.654 100.798L464.204 101.633L464.211 101.629L463.654 100.798ZM481.603 140.608L481.373 141.581L481.379 141.583L481.603 140.608ZM509.677 147.051L509.902 146.077L509.901 146.076L509.677 147.051ZM546.035 164.425L545.335 165.139L546.035 164.425ZM548.796 223.219L547.993 222.624L547.992 222.625L548.796 223.219ZM523.369 242.548L522.974 241.629L522.972 241.63L523.369 242.548ZM437.306 236.911L436.743 237.737L436.747 237.739L437.306 236.911ZM414.295 200.668L414.144 199.679L413.127 199.834L413.311 200.846L414.295 200.668ZM447.546 195.605L448.519 195.373L448.305 194.478L447.396 194.617L447.546 195.605ZM460.318 215.28L459.749 216.103L459.756 216.107L460.318 215.28ZM512.553 214.82L513.123 215.641L513.129 215.637L512.553 214.82ZM516.465 183.524L515.786 184.258L515.793 184.265L516.465 183.524ZM497.711 175.01L497.933 174.035L497.925 174.033L497.711 175.01ZM467.796 168.452L467.574 169.427L467.582 169.429L467.796 168.452ZM431.208 150.503L430.484 151.193L430.488 151.196L431.208 150.503ZM428.217 91.9389L427.415 91.3414L428.217 91.9389ZM452.379 73.6449L452.77 74.5651L452.776 74.5626L452.379 73.6449ZM532.803 79.3977L532.201 80.1957L532.204 80.1984L532.803 79.3977ZM554.375 111.434L523.194 116.957L523.543 118.926L554.723 113.404L554.375 111.434ZM524.319 117.631C522.975 113.521 520.845 109.621 517.941 105.933L516.37 107.17C519.142 110.691 521.154 114.385 522.418 118.252L524.319 117.631ZM517.949 105.943C515.079 102.195 511.189 99.1497 506.316 96.7916L505.444 98.5919C510.082 100.836 513.71 103.697 516.362 107.159L517.949 105.943ZM506.316 96.7916C501.385 94.4059 495.28 93.2401 488.046 93.2401V95.2401C495.079 95.2401 500.863 96.3753 505.444 98.5919L506.316 96.7916ZM488.046 93.2401C478.154 93.2401 469.818 95.4611 463.097 99.9677L464.211 101.629C470.53 97.3912 478.455 95.2401 488.046 95.2401V93.2401ZM463.104 99.9632C456.35 104.413 452.874 110.266 452.874 117.482H454.874C454.874 111.044 457.918 105.775 464.204 101.633L463.104 99.9632ZM452.874 117.482C452.874 123.672 455.183 128.716 459.796 132.52L461.069 130.977C456.938 127.571 454.874 123.104 454.874 117.482H452.874ZM459.796 132.52C464.345 136.271 471.58 139.268 481.373 141.581L481.833 139.635C472.143 137.346 465.264 134.436 461.069 130.977L459.796 132.52ZM481.379 141.583L509.453 148.026L509.901 146.076L481.827 139.633L481.379 141.583ZM509.452 148.025C525.616 151.762 537.538 157.492 545.335 165.139L546.735 163.711C538.577 155.709 526.26 149.858 509.902 146.077L509.452 148.025ZM545.335 165.139C553.096 172.751 557.001 182.645 557.001 194.915H559.001C559.001 182.178 554.928 171.746 546.735 163.711L545.335 165.139ZM557.001 194.915C557.001 205.292 553.998 214.517 547.993 222.624L549.6 223.814C555.867 215.353 559.001 205.708 559.001 194.915H557.001ZM547.992 222.625C542.053 230.668 533.73 237.009 522.974 241.629L523.763 243.467C534.792 238.73 543.42 232.185 549.601 223.813L547.992 222.625ZM522.972 241.63C512.305 246.245 499.904 248.567 485.745 248.567V250.567C500.121 250.567 512.802 248.209 523.766 243.466L522.972 241.63ZM485.745 248.567C466.093 248.567 450.159 244.378 437.865 236.082L436.747 237.739C449.459 246.318 465.817 250.567 485.745 250.567V248.567ZM437.869 236.084C425.6 227.729 418.072 215.888 415.279 200.489L413.311 200.846C416.194 216.742 424.006 229.064 436.743 237.737L437.869 236.084ZM414.445 201.656L447.697 196.594L447.396 194.617L414.144 199.679L414.445 201.656ZM446.574 195.837C448.693 204.71 453.075 211.494 459.749 216.103L460.886 214.457C454.674 210.168 450.541 203.836 448.519 195.373L446.574 195.837ZM459.756 216.107C466.411 220.624 475.024 222.838 485.515 222.838V220.838C475.295 220.838 467.11 218.68 460.879 214.452L459.756 216.107ZM485.515 222.838C496.92 222.838 506.154 220.472 513.123 215.641L511.984 213.998C505.453 218.525 496.661 220.838 485.515 220.838V222.838ZM513.129 215.637C520.082 210.739 523.678 204.668 523.678 197.446H521.678C521.678 203.877 518.525 209.389 511.977 214.002L513.129 215.637ZM523.678 197.446C523.678 191.637 521.485 186.729 517.137 182.784L515.793 184.265C519.729 187.836 521.678 192.209 521.678 197.446H523.678ZM517.144 182.79C512.897 178.863 506.453 175.971 497.933 174.035L497.489 175.985C505.844 177.884 511.903 180.668 515.786 184.258L517.144 182.79ZM497.925 174.033L468.01 167.475L467.582 169.429L497.497 175.987L497.925 174.033ZM468.018 167.477C451.63 163.742 439.643 157.824 431.929 149.809L430.488 151.196C438.574 159.597 450.979 165.645 467.574 169.427L468.018 167.477ZM431.932 149.813C424.305 141.812 420.472 131.676 420.472 119.322H418.472C418.472 132.128 422.463 142.778 430.484 151.193L431.932 149.813ZM420.472 119.322C420.472 109.09 423.327 100.175 429.018 92.5364L427.415 91.3414C421.447 99.3502 418.472 108.691 418.472 119.322H420.472ZM429.018 92.5364C434.728 84.8741 442.631 78.8781 452.77 74.5651L451.987 72.7247C441.57 77.156 433.365 83.356 427.415 91.3414L429.018 92.5364ZM452.776 74.5626C462.908 70.1771 474.543 67.9716 487.701 67.9716V65.9716C474.319 65.9716 462.406 68.215 451.981 72.7272L452.776 74.5626ZM487.701 67.9716C506.666 67.9716 521.462 72.0852 532.201 80.1957L533.406 78.5997C522.207 70.1421 506.935 65.9716 487.701 65.9716V67.9716ZM532.204 80.1984C542.982 88.2632 550.106 99.0714 553.58 112.667L555.518 112.171C551.935 98.1531 544.562 86.947 533.402 78.597L532.204 80.1984ZM595.826 246H594.826V247H595.826V246ZM595.826 69.2727V68.2727H594.826V69.2727H595.826ZM630.228 69.2727H631.228V68.2727H630.228V69.2727ZM630.228 246V247H631.228V246H630.228ZM597.782 36.0213L597.088 36.7414L597.094 36.7478L597.101 36.7541L597.782 36.0213ZM597.782 7.02698L598.469 7.75362L598.469 7.75327L597.782 7.02698ZM628.502 7.02698L627.808 7.74706L627.815 7.75347L627.821 7.75977L628.502 7.02698ZM628.502 36.0213L629.189 36.7479L629.189 36.7476L628.502 36.0213ZM596.826 246V69.2727H594.826V246H596.826ZM595.826 70.2727H630.228V68.2727H595.826V70.2727ZM629.228 69.2727V246H631.228V69.2727H629.228ZM630.228 245H595.826V247H630.228V245ZM613.199 41.0043C607.463 41.0043 602.568 39.1015 598.462 35.2885L597.101 36.7541C601.586 40.9184 606.97 43.0043 613.199 43.0043V41.0043ZM598.476 35.3012C594.442 31.4146 592.453 26.8382 592.453 21.5241H590.453C590.453 27.409 592.684 32.4973 597.088 36.7414L598.476 35.3012ZM592.453 21.5241C592.453 16.13 594.445 11.5583 598.469 7.75362L597.095 6.30033C592.681 10.473 590.453 15.566 590.453 21.5241H592.453ZM598.469 7.75327C602.576 3.86596 607.469 1.92897 613.199 1.92897V-0.0710297C606.964 -0.0710297 601.578 2.05732 597.094 6.30068L598.469 7.75327ZM613.199 1.92897C618.93 1.92897 623.78 3.8655 627.808 7.74706L629.196 6.3069C624.786 2.05778 619.435 -0.0710297 613.199 -0.0710297V1.92897ZM627.821 7.75977C631.921 11.5662 633.945 16.1362 633.945 21.5241H635.945C635.945 15.5598 633.674 10.465 629.182 6.29418L627.821 7.75977ZM633.945 21.5241C633.945 26.832 631.923 31.4066 627.814 35.295L629.189 36.7476C633.672 32.5053 635.945 27.4152 635.945 21.5241H633.945ZM627.815 35.2946C623.788 39.1019 618.935 41.0043 613.199 41.0043V43.0043C619.429 43.0043 624.778 40.918 629.189 36.7479L627.815 35.2946ZM714.363 310.432L714.019 311.371L714.021 311.372L714.363 310.432ZM689.741 295.82L690.43 295.095L689.741 295.82ZM675.474 275.915L675.092 274.99L674.149 275.379L674.557 276.315L675.474 275.915ZM705.043 263.719L705.896 263.196L705.45 262.469L704.662 262.794L705.043 263.719ZM713.327 274.419L712.591 275.095L712.591 275.096L713.327 274.419ZM727.594 284.199L727.185 285.111L727.189 285.113L727.594 284.199ZM783.282 278.676L782.688 277.872L782.683 277.875L783.282 278.676ZM796.053 213.784H797.053V212.784H796.053V213.784ZM793.867 213.784V212.784H793.276L792.991 213.301L793.867 213.784ZM784.893 226.325L784.131 225.678L784.125 225.685L784.893 226.325ZM769.015 238.291L768.568 237.397L769.015 238.291ZM704.928 233.574L704.418 234.434L704.425 234.438L704.928 233.574ZM678.465 204.464L677.571 204.912L677.574 204.918L678.465 204.464ZM678.35 108.622L677.449 108.189L677.447 108.194L678.35 108.622ZM704.813 77.7869L705.35 78.6304L705.355 78.6277L704.813 77.7869ZM769.475 72.4943L768.996 73.3722L769.004 73.3764L769.475 72.4943ZM785.238 85.1506L784.449 85.7645L784.455 85.7722L785.238 85.1506ZM794.097 97.9219L793.226 98.4121L793.512 98.9219H794.097V97.9219ZM796.629 97.9219V98.9219H797.629V97.9219H796.629ZM796.629 69.2727V68.2727H795.629V69.2727H796.629ZM830.34 69.2727H831.34V68.2727H830.34V69.2727ZM819.755 287.305L818.945 286.719L819.755 287.305ZM791.106 308.936L790.744 308.004L790.742 308.005L791.106 308.936ZM775.343 207.916L775.902 208.745L775.904 208.744L775.343 207.916ZM790.991 187.896L790.066 187.515L790.065 187.519L790.991 187.896ZM775.573 103.905L774.972 104.704L774.977 104.708L775.573 103.905ZM724.373 104.25L724.981 105.044L724.987 105.039L724.373 104.25ZM708.725 125.881L707.792 125.52L707.79 125.527L708.725 125.881ZM708.84 186.976L709.768 186.602L708.84 186.976ZM724.488 207.456L723.908 208.271L723.913 208.274L724.488 207.456ZM750.606 314.955C736.652 314.955 724.693 313.124 714.705 309.492L714.021 311.372C724.283 315.103 736.486 316.955 750.606 316.955V314.955ZM714.707 309.493C704.76 305.848 696.678 301.042 690.43 295.095L689.051 296.544C695.536 302.716 703.869 307.652 714.019 311.371L714.707 309.493ZM690.43 295.095C684.149 289.117 679.476 282.589 676.39 275.515L674.557 276.315C677.761 283.661 682.6 290.403 689.051 296.544L690.43 295.095ZM675.855 276.839L705.425 264.643L704.662 262.794L675.092 274.99L675.855 276.839ZM704.191 264.242C706.304 267.685 709.107 271.302 712.591 275.095L714.064 273.743C710.644 270.019 707.925 266.503 705.896 263.196L704.191 264.242ZM712.591 275.096C716.232 279.053 721.109 282.385 727.185 285.111L728.004 283.286C722.114 280.643 717.48 277.455 714.063 273.742L712.591 275.096ZM727.189 285.113C733.419 287.873 741.356 289.226 750.951 289.226V287.226C741.523 287.226 733.889 285.894 728 283.285L727.189 285.113ZM750.951 289.226C764.157 289.226 775.158 286 783.881 279.477L782.683 277.875C774.378 284.085 763.825 287.226 750.951 287.226V289.226ZM783.876 279.48C792.72 272.947 797.053 262.55 797.053 248.531H795.053C795.053 262.127 790.872 271.826 782.688 277.872L783.876 279.48ZM797.053 248.531V213.784H795.053V248.531H797.053ZM796.053 212.784H793.867V214.784H796.053V212.784ZM792.991 213.301C790.963 216.983 788.015 221.108 784.131 225.678L785.655 226.973C789.594 222.339 792.63 218.102 794.743 214.267L792.991 213.301ZM784.125 225.685C780.397 230.158 775.225 234.068 768.568 237.397L769.462 239.186C776.305 235.764 781.718 231.697 785.661 226.965L784.125 225.685ZM768.568 237.397C762.003 240.679 753.39 242.354 742.667 242.354V244.354C753.575 244.354 762.526 242.653 769.462 239.186L768.568 237.397ZM742.667 242.354C728.869 242.354 716.466 239.134 705.431 232.71L704.425 234.438C715.789 241.054 728.544 244.354 742.667 244.354V242.354ZM705.438 232.714C694.497 226.224 685.8 216.671 679.356 204.011L677.574 204.918C684.17 217.877 693.115 227.73 704.418 234.434L705.438 232.714ZM679.36 204.017C673.004 191.305 669.8 175.629 669.8 156.946H667.8C667.8 175.848 671.04 191.851 677.571 204.912L679.36 204.017ZM669.8 156.946C669.8 138.264 672.965 122.309 679.254 109.051L677.447 108.194C671.002 121.781 667.8 138.043 667.8 156.946H669.8ZM679.252 109.055C685.624 95.7788 694.328 85.6518 705.35 78.6304L704.276 76.9435C692.901 84.1891 683.962 94.6189 677.449 108.189L679.252 109.055ZM705.355 78.6277C716.381 71.5283 728.885 67.9716 742.897 67.9716V65.9716C728.528 65.9716 715.643 69.6251 704.272 76.9461L705.355 78.6277ZM742.897 67.9716C753.766 67.9716 762.443 69.7974 768.996 73.3722L769.954 71.6164C763.008 67.8276 753.966 65.9716 742.897 65.9716V67.9716ZM769.004 73.3764C775.66 76.9314 780.795 81.0668 784.449 85.7645L786.027 84.5366C782.164 79.5695 776.79 75.2674 769.946 71.6122L769.004 73.3764ZM784.455 85.7722C788.271 90.5802 791.189 94.7921 793.226 98.4121L794.969 97.4316C792.863 93.688 789.876 89.3857 786.021 84.5289L784.455 85.7722ZM794.097 98.9219H796.629V96.9219H794.097V98.9219ZM797.629 97.9219V69.2727H795.629V97.9219H797.629ZM796.629 70.2727H830.34V68.2727H796.629V70.2727ZM829.34 69.2727V249.912H831.34V69.2727H829.34ZM829.34 249.912C829.34 264.944 825.849 277.188 818.945 286.719L820.565 287.892C827.774 277.94 831.34 265.254 831.34 249.912H829.34ZM818.945 286.719C812.01 296.293 802.621 303.389 790.744 308.004L791.468 309.868C803.676 305.125 813.387 297.801 820.565 287.892L818.945 286.719ZM790.742 308.005C778.91 312.631 765.536 314.955 750.606 314.955V316.955C765.744 316.955 779.37 314.599 791.47 309.867L790.742 308.005ZM750.261 215.82C760.314 215.82 768.879 213.48 775.902 208.745L774.784 207.087C768.153 211.557 759.997 213.82 750.261 213.82V215.82ZM775.904 208.744C782.991 203.941 788.323 197.101 791.917 188.273L790.065 187.519C786.601 196.027 781.502 202.534 774.782 207.088L775.904 208.744ZM791.915 188.277C795.582 179.383 797.398 168.776 797.398 156.486H795.398C795.398 168.587 793.609 178.921 790.066 187.515L791.915 188.277ZM797.398 156.486C797.398 144.499 795.62 133.902 792.038 124.712L790.174 125.438C793.649 134.351 795.398 144.694 795.398 156.486H797.398ZM792.038 124.712C788.451 115.511 783.167 108.292 776.169 103.102L774.977 104.708C781.632 109.643 786.704 116.537 790.174 125.438L792.038 124.712ZM776.175 103.106C769.145 97.8143 760.486 95.196 750.261 95.196V97.196C760.131 97.196 768.347 99.717 774.972 104.704L776.175 103.106ZM750.261 95.196C739.726 95.196 730.869 97.9308 723.759 103.461L724.987 105.039C731.684 99.8305 740.085 97.196 750.261 97.196V95.196ZM723.764 103.456C716.698 108.874 711.379 116.243 707.792 125.52L709.658 126.241C713.129 117.263 718.241 110.211 724.981 105.044L723.764 103.456ZM707.79 125.527C704.289 134.784 702.548 145.108 702.548 156.486H704.548C704.548 145.313 706.258 135.233 709.661 126.234L707.79 125.527ZM702.548 156.486C702.548 168.168 704.327 178.463 707.913 187.35L709.768 186.602C706.297 178 704.548 167.968 704.548 156.486H702.548ZM707.913 187.35C711.504 196.251 716.832 203.239 723.908 208.271L725.067 206.641C718.337 201.855 713.233 195.19 709.768 186.602L707.913 187.35ZM723.913 208.274C731.092 213.323 739.894 215.82 750.261 215.82V213.82C740.224 213.82 731.844 211.407 725.063 206.638L723.913 208.274ZM910.88 246V247H911.88V246H910.88ZM876.478 246H875.478V247H876.478V246ZM876.478 69.2727V68.2727H875.478V69.2727H876.478ZM909.499 69.2727H910.499V68.2727H909.499V69.2727ZM909.499 98.0369H908.499V99.0369H909.499V98.0369ZM911.685 98.0369V99.0369H912.341L912.603 98.4354L911.685 98.0369ZM930.785 75.4858L930.24 74.647L930.237 74.6492L930.785 75.4858ZM995.447 74.5653L994.959 75.4381L994.964 75.4412L995.447 74.5653ZM1016.5 96.8864L1015.61 97.3363V97.3363L1016.5 96.8864ZM1023.98 246V247H1024.98V246H1023.98ZM989.579 246H988.579V247H989.579V246ZM979.569 107.702L978.831 108.377L978.835 108.381L979.569 107.702ZM930.785 101.949L930.299 101.075L930.295 101.077L930.785 101.949ZM916.173 117.136L915.293 116.661L915.291 116.665L916.173 117.136ZM909.88 141.068V246H911.88V141.068H909.88ZM910.88 245H876.478V247H910.88V245ZM877.478 246V69.2727H875.478V246H877.478ZM876.478 70.2727H909.499V68.2727H876.478V70.2727ZM908.499 69.2727V98.0369H910.499V69.2727H908.499ZM909.499 99.0369H911.685V97.0369H909.499V99.0369ZM912.603 98.4354C916.589 89.2593 922.826 81.8934 931.333 76.3224L930.237 74.6492C921.409 80.4305 914.912 88.0987 910.768 97.6385L912.603 98.4354ZM931.329 76.3246C939.873 70.7789 950.677 67.9716 963.806 67.9716V65.9716C950.395 65.9716 939.186 68.8404 930.24 74.647L931.329 76.3246ZM963.806 67.9716C975.706 67.9716 986.079 70.4716 994.959 75.4381L995.935 73.6926C986.712 68.5341 975.992 65.9716 963.806 65.9716V67.9716ZM994.964 75.4412C1003.83 80.3226 1010.71 87.6079 1015.61 97.3363L1017.4 96.4364C1012.33 86.3751 1005.17 78.7797 995.929 73.6894L994.964 75.4412ZM1015.61 97.3363C1020.51 107.055 1022.98 119.125 1022.98 133.589H1024.98C1024.98 118.907 1022.47 106.508 1017.4 96.4364L1015.61 97.3363ZM1022.98 133.589V246H1024.98V133.589H1022.98ZM1023.98 245H989.579V247H1023.98V245ZM990.579 246V137.732H988.579V246H990.579ZM990.579 137.732C990.579 124.749 987.194 114.468 980.303 107.022L978.835 108.381C985.29 115.356 988.579 125.095 988.579 137.732H990.579ZM980.306 107.026C973.409 99.4951 963.955 95.7713 952.07 95.7713V97.7713C963.504 97.7713 972.382 101.334 978.831 108.377L980.306 107.026ZM952.07 95.7713C943.944 95.7713 936.678 97.5308 930.299 101.075L931.27 102.823C937.318 99.4635 944.242 97.7713 952.07 97.7713V95.7713ZM930.295 101.077C923.981 104.629 918.98 109.835 915.293 116.661L917.052 117.612C920.575 111.091 925.316 106.172 931.275 102.82L930.295 101.077ZM915.291 116.665C911.668 123.438 909.88 131.586 909.88 141.068H911.88C911.88 131.834 913.621 124.028 917.054 117.608L915.291 116.665Z" fill="#DADADA" mask="url(#path-1-outside-1_46_13547)"/>
<defs>
<filter id="filter0_i_46_13547" x="0.896484" y="0.928711" width="1029.08" height="321.025" filterUnits="userSpaceOnUse" color-interpolation-filters="sRGB">
<feFlood flood-opacity="0" result="BackgroundImageFix"/>
<feBlend mode="normal" in="SourceGraphic" in2="BackgroundImageFix" result="shape"/>
<feColorMatrix in="SourceAlpha" type="matrix" values="0 0 0 0 0 0 0 0 0 0 0 0 0 0 0 0 0 0 127 0" result="hardAlpha"/>
<feOffset dx="6" dy="6"/>
<feGaussianBlur stdDeviation="4"/>
<feComposite in2="hardAlpha" operator="arithmetic" k2="-1" k3="1"/>
<feColorMatrix type="matrix" values="0 0 0 0 0.00392157 0 0 0 0 0.00784314 0 0 0 0 0.00784314 0 0 0 0.1 0"/>
<feBlend mode="normal" in2="shape" result="effect1_innerShadow_46_13547"/>
</filter>
</defs>
</svg>
