<svg width="1222" height="303" viewBox="0 0 1222 303" fill="none" xmlns="http://www.w3.org/2000/svg">
<mask id="path-1-outside-1_46_13816" maskUnits="userSpaceOnUse" x="-1" y="-1" width="1224" height="305" fill="black">
<rect fill="white" x="-1" y="-1" width="1224" height="305"/>
<path d="M76.94 236H0.657316V0.363629H79.3562C102.444 0.363629 122.272 5.08096 138.841 14.5156C155.409 23.8736 168.103 37.3352 176.924 54.9006C185.822 72.3892 190.271 93.3679 190.271 117.837C190.271 142.382 185.784 163.476 176.809 181.118C167.912 198.76 155.025 212.337 138.15 221.848C121.275 231.283 100.872 236 76.94 236ZM36.2099 204.935H74.984C92.9329 204.935 107.852 201.56 119.741 194.81C131.63 187.983 140.528 178.126 146.434 165.24C152.341 152.277 155.294 136.476 155.294 117.837C155.294 99.3509 152.341 83.6648 146.434 70.7784C140.605 57.892 131.899 48.1122 120.316 41.4389C108.734 34.7656 94.3519 31.429 77.1701 31.429H36.2099V204.935ZM307.888 239.567C290.476 239.567 275.48 235.847 262.901 228.406C250.398 220.889 240.733 210.342 233.906 196.766C227.156 183.112 223.781 167.119 223.781 148.787C223.781 130.685 227.156 114.73 233.906 100.923C240.733 87.1165 250.244 76.3395 262.44 68.5923C274.713 60.8452 289.057 56.9716 305.472 56.9716C315.443 56.9716 325.108 58.6207 334.466 61.919C343.824 65.2173 352.223 70.3949 359.663 77.4517C367.104 84.5085 372.972 93.6747 377.267 104.95C381.563 116.149 383.71 129.764 383.71 145.795V157.991H243.226V132.219H349.999C349.999 123.168 348.158 115.152 344.476 108.172C340.794 101.115 335.616 95.554 328.943 91.4886C322.347 87.4233 314.599 85.3906 305.702 85.3906C296.037 85.3906 287.599 87.7685 280.389 92.5241C273.256 97.2031 267.733 103.339 263.821 110.933C259.986 118.45 258.068 126.619 258.068 135.44V155.575C258.068 167.388 260.139 177.436 264.281 185.72C268.5 194.004 274.368 200.332 281.885 204.705C289.402 209 298.185 211.148 308.233 211.148C314.753 211.148 320.697 210.227 326.067 208.386C331.436 206.469 336.077 203.631 339.989 199.872C343.901 196.114 346.892 191.473 348.963 185.95L381.524 191.818C378.916 201.406 374.237 209.805 367.487 217.016C360.814 224.149 352.415 229.71 342.29 233.699C332.241 237.611 320.774 239.567 307.888 239.567ZM568.002 59.2727L503.916 236H467.098L402.896 59.2727H439.829L484.586 195.27H486.427L531.069 59.2727H568.002ZM670.489 239.567C653.077 239.567 638.082 235.847 625.502 228.406C612.999 220.889 603.335 210.342 596.508 196.766C589.758 183.112 586.383 167.119 586.383 148.787C586.383 130.685 589.758 114.73 596.508 100.923C603.335 87.1165 612.846 76.3395 625.042 68.5923C637.315 60.8452 651.658 56.9716 668.073 56.9716C678.045 56.9716 687.71 58.6207 697.067 61.919C706.425 65.2173 714.825 70.3949 722.265 77.4517C729.705 84.5085 735.573 93.6747 739.869 104.95C744.164 116.149 746.312 129.764 746.312 145.795V157.991H605.827V132.219H712.6C712.6 123.168 710.759 115.152 707.077 108.172C703.396 101.115 698.218 95.554 691.545 91.4886C684.948 87.4233 677.201 85.3906 668.303 85.3906C658.638 85.3906 650.201 87.7685 642.991 92.5241C635.857 97.2031 630.335 103.339 626.423 110.933C622.587 118.45 620.67 126.619 620.67 135.44V155.575C620.67 167.388 622.741 177.436 626.883 185.72C631.102 194.004 636.969 200.332 644.487 204.705C652.004 209 660.786 211.148 670.835 211.148C677.354 211.148 683.299 210.227 688.668 208.386C694.038 206.469 698.678 203.631 702.59 199.872C706.502 196.114 709.494 191.473 711.565 185.95L744.126 191.818C741.518 201.406 736.839 209.805 730.089 217.016C723.415 224.149 715.016 229.71 704.891 233.699C694.843 237.611 683.376 239.567 670.489 239.567ZM818.884 0.363629V236H784.482V0.363629H818.884ZM939.607 239.567C923.039 239.567 908.58 235.77 896.231 228.176C883.881 220.582 874.293 209.959 867.467 196.305C860.64 182.652 857.227 166.697 857.227 148.442C857.227 130.109 860.64 114.078 867.467 100.348C874.293 86.6179 883.881 75.956 896.231 68.3622C908.58 60.7685 923.039 56.9716 939.607 56.9716C956.175 56.9716 970.634 60.7685 982.984 68.3622C995.333 75.956 1004.92 86.6179 1011.75 100.348C1018.57 114.078 1021.99 130.109 1021.99 148.442C1021.99 166.697 1018.57 182.652 1011.75 196.305C1004.92 209.959 995.333 220.582 982.984 228.176C970.634 235.77 956.175 239.567 939.607 239.567ZM939.722 210.688C950.461 210.688 959.359 207.849 966.415 202.173C973.472 196.497 978.688 188.942 982.063 179.507C985.515 170.072 987.241 159.679 987.241 148.327C987.241 137.051 985.515 126.696 982.063 117.261C978.688 107.75 973.472 100.118 966.415 94.3651C959.359 88.6122 950.461 85.7358 939.722 85.7358C928.907 85.7358 919.933 88.6122 912.799 94.3651C905.742 100.118 900.488 107.75 897.036 117.261C893.661 126.696 891.974 137.051 891.974 148.327C891.974 159.679 893.661 170.072 897.036 179.507C900.488 188.942 905.742 196.497 912.799 202.173C919.933 207.849 928.907 210.688 939.722 210.688ZM1060.39 302.273V59.2727H1093.98V87.9219H1096.86C1098.86 84.2401 1101.73 79.983 1105.49 75.1506C1109.25 70.3182 1114.46 66.0994 1121.14 62.4943C1127.81 58.8125 1136.63 56.9716 1147.6 56.9716C1161.87 56.9716 1174.6 60.5767 1185.8 67.7869C1197 74.9972 1205.78 85.3906 1212.15 98.9673C1218.59 112.544 1221.81 128.882 1221.81 147.982C1221.81 167.081 1218.63 183.457 1212.26 197.111C1205.9 210.687 1197.15 221.158 1186.03 228.521C1174.91 235.808 1162.21 239.452 1147.95 239.452C1137.21 239.452 1128.43 237.649 1121.6 234.044C1114.85 230.439 1109.56 226.22 1105.72 221.388C1101.89 216.555 1098.93 212.26 1096.86 208.501H1094.79V302.273H1060.39ZM1094.1 147.636C1094.1 160.062 1095.9 170.955 1099.51 180.312C1103.11 189.67 1108.33 196.996 1115.16 202.288C1121.98 207.504 1130.34 210.112 1140.24 210.112C1150.52 210.112 1159.11 207.389 1166.01 201.943C1172.91 196.42 1178.13 188.942 1181.66 179.507C1185.26 170.072 1187.07 159.449 1187.07 147.636C1187.07 135.977 1185.3 125.507 1181.77 116.226C1178.32 106.945 1173.11 99.6193 1166.13 94.25C1159.22 88.8807 1150.59 86.196 1140.24 86.196C1130.27 86.196 1121.83 88.7656 1114.93 93.9048C1108.1 99.044 1102.92 106.216 1099.39 115.42C1095.86 124.625 1094.1 135.364 1094.1 147.636Z"/>
</mask>
<g filter="url(#filter0_i_46_13816)">
<path d="M76.94 236H0.657316V0.363629H79.3562C102.444 0.363629 122.272 5.08096 138.841 14.5156C155.409 23.8736 168.103 37.3352 176.924 54.9006C185.822 72.3892 190.271 93.3679 190.271 117.837C190.271 142.382 185.784 163.476 176.809 181.118C167.912 198.76 155.025 212.337 138.15 221.848C121.275 231.283 100.872 236 76.94 236ZM36.2099 204.935H74.984C92.9329 204.935 107.852 201.56 119.741 194.81C131.63 187.983 140.528 178.126 146.434 165.24C152.341 152.277 155.294 136.476 155.294 117.837C155.294 99.3509 152.341 83.6648 146.434 70.7784C140.605 57.892 131.899 48.1122 120.316 41.4389C108.734 34.7656 94.3519 31.429 77.1701 31.429H36.2099V204.935ZM307.888 239.567C290.476 239.567 275.48 235.847 262.901 228.406C250.398 220.889 240.733 210.342 233.906 196.766C227.156 183.112 223.781 167.119 223.781 148.787C223.781 130.685 227.156 114.73 233.906 100.923C240.733 87.1165 250.244 76.3395 262.44 68.5923C274.713 60.8452 289.057 56.9716 305.472 56.9716C315.443 56.9716 325.108 58.6207 334.466 61.919C343.824 65.2173 352.223 70.3949 359.663 77.4517C367.104 84.5085 372.972 93.6747 377.267 104.95C381.563 116.149 383.71 129.764 383.71 145.795V157.991H243.226V132.219H349.999C349.999 123.168 348.158 115.152 344.476 108.172C340.794 101.115 335.616 95.554 328.943 91.4886C322.347 87.4233 314.599 85.3906 305.702 85.3906C296.037 85.3906 287.599 87.7685 280.389 92.5241C273.256 97.2031 267.733 103.339 263.821 110.933C259.986 118.45 258.068 126.619 258.068 135.44V155.575C258.068 167.388 260.139 177.436 264.281 185.72C268.5 194.004 274.368 200.332 281.885 204.705C289.402 209 298.185 211.148 308.233 211.148C314.753 211.148 320.697 210.227 326.067 208.386C331.436 206.469 336.077 203.631 339.989 199.872C343.901 196.114 346.892 191.473 348.963 185.95L381.524 191.818C378.916 201.406 374.237 209.805 367.487 217.016C360.814 224.149 352.415 229.71 342.29 233.699C332.241 237.611 320.774 239.567 307.888 239.567ZM568.002 59.2727L503.916 236H467.098L402.896 59.2727H439.829L484.586 195.27H486.427L531.069 59.2727H568.002ZM670.489 239.567C653.077 239.567 638.082 235.847 625.502 228.406C612.999 220.889 603.335 210.342 596.508 196.766C589.758 183.112 586.383 167.119 586.383 148.787C586.383 130.685 589.758 114.73 596.508 100.923C603.335 87.1165 612.846 76.3395 625.042 68.5923C637.315 60.8452 651.658 56.9716 668.073 56.9716C678.045 56.9716 687.71 58.6207 697.067 61.919C706.425 65.2173 714.825 70.3949 722.265 77.4517C729.705 84.5085 735.573 93.6747 739.869 104.95C744.164 116.149 746.312 129.764 746.312 145.795V157.991H605.827V132.219H712.6C712.6 123.168 710.759 115.152 707.077 108.172C703.396 101.115 698.218 95.554 691.545 91.4886C684.948 87.4233 677.201 85.3906 668.303 85.3906C658.638 85.3906 650.201 87.7685 642.991 92.5241C635.857 97.2031 630.335 103.339 626.423 110.933C622.587 118.45 620.67 126.619 620.67 135.44V155.575C620.67 167.388 622.741 177.436 626.883 185.72C631.102 194.004 636.969 200.332 644.487 204.705C652.004 209 660.786 211.148 670.835 211.148C677.354 211.148 683.299 210.227 688.668 208.386C694.038 206.469 698.678 203.631 702.59 199.872C706.502 196.114 709.494 191.473 711.565 185.95L744.126 191.818C741.518 201.406 736.839 209.805 730.089 217.016C723.415 224.149 715.016 229.71 704.891 233.699C694.843 237.611 683.376 239.567 670.489 239.567ZM818.884 0.363629V236H784.482V0.363629H818.884ZM939.607 239.567C923.039 239.567 908.58 235.77 896.231 228.176C883.881 220.582 874.293 209.959 867.467 196.305C860.64 182.652 857.227 166.697 857.227 148.442C857.227 130.109 860.64 114.078 867.467 100.348C874.293 86.6179 883.881 75.956 896.231 68.3622C908.58 60.7685 923.039 56.9716 939.607 56.9716C956.175 56.9716 970.634 60.7685 982.984 68.3622C995.333 75.956 1004.92 86.6179 1011.75 100.348C1018.57 114.078 1021.99 130.109 1021.99 148.442C1021.99 166.697 1018.57 182.652 1011.75 196.305C1004.92 209.959 995.333 220.582 982.984 228.176C970.634 235.77 956.175 239.567 939.607 239.567ZM939.722 210.688C950.461 210.688 959.359 207.849 966.415 202.173C973.472 196.497 978.688 188.942 982.063 179.507C985.515 170.072 987.241 159.679 987.241 148.327C987.241 137.051 985.515 126.696 982.063 117.261C978.688 107.75 973.472 100.118 966.415 94.3651C959.359 88.6122 950.461 85.7358 939.722 85.7358C928.907 85.7358 919.933 88.6122 912.799 94.3651C905.742 100.118 900.488 107.75 897.036 117.261C893.661 126.696 891.974 137.051 891.974 148.327C891.974 159.679 893.661 170.072 897.036 179.507C900.488 188.942 905.742 196.497 912.799 202.173C919.933 207.849 928.907 210.688 939.722 210.688ZM1060.39 302.273V59.2727H1093.98V87.9219H1096.86C1098.86 84.2401 1101.73 79.983 1105.49 75.1506C1109.25 70.3182 1114.46 66.0994 1121.14 62.4943C1127.81 58.8125 1136.63 56.9716 1147.6 56.9716C1161.87 56.9716 1174.6 60.5767 1185.8 67.7869C1197 74.9972 1205.78 85.3906 1212.15 98.9673C1218.59 112.544 1221.81 128.882 1221.81 147.982C1221.81 167.081 1218.63 183.457 1212.26 197.111C1205.9 210.687 1197.15 221.158 1186.03 228.521C1174.91 235.808 1162.21 239.452 1147.95 239.452C1137.21 239.452 1128.43 237.649 1121.6 234.044C1114.85 230.439 1109.56 226.22 1105.72 221.388C1101.89 216.555 1098.93 212.26 1096.86 208.501H1094.79V302.273H1060.39ZM1094.1 147.636C1094.1 160.062 1095.9 170.955 1099.51 180.312C1103.11 189.67 1108.33 196.996 1115.16 202.288C1121.98 207.504 1130.34 210.112 1140.24 210.112C1150.52 210.112 1159.11 207.389 1166.01 201.943C1172.91 196.42 1178.13 188.942 1181.66 179.507C1185.26 170.072 1187.07 159.449 1187.07 147.636C1187.07 135.977 1185.3 125.507 1181.77 116.226C1178.32 106.945 1173.11 99.6193 1166.13 94.25C1159.22 88.8807 1150.59 86.196 1140.24 86.196C1130.27 86.196 1121.83 88.7656 1114.93 93.9048C1108.1 99.044 1102.92 106.216 1099.39 115.42C1095.86 124.625 1094.1 135.364 1094.1 147.636Z" fill="white"/>
</g>
<path d="M0.657318 236H-0.342682V237H0.657318V236ZM0.657318 0.363632V-0.636368H-0.342682V0.363632H0.657318ZM138.841 14.5156L138.346 15.3846L138.349 15.3863L138.841 14.5156ZM176.924 54.9006L176.031 55.3493L176.033 55.354L176.924 54.9006ZM176.809 181.118L175.918 180.664L175.916 180.668L176.809 181.118ZM138.15 221.848L138.638 222.721L138.641 222.719L138.15 221.848ZM36.2099 204.935H35.2099V205.935H36.2099V204.935ZM119.741 194.81L120.235 195.679L120.239 195.677L119.741 194.81ZM146.434 165.24L147.343 165.657L147.344 165.655L146.434 165.24ZM146.434 70.7784L145.523 71.1906L145.525 71.1951L146.434 70.7784ZM120.316 41.4389L119.817 42.3054L120.316 41.4389ZM36.2099 31.429V30.429H35.2099V31.429H36.2099ZM76.94 235H0.657318V237H76.94V235ZM1.65732 236V0.363632H-0.342682V236H1.65732ZM0.657318 1.36363H79.3562V-0.636368H0.657318V1.36363ZM79.3562 1.36363C102.307 1.36363 121.957 6.05222 138.346 15.3846L139.335 13.6466C122.588 4.1097 102.581 -0.636368 79.3562 -0.636368V1.36363ZM138.349 15.3863C154.738 24.6433 167.296 37.9552 176.031 55.3493L177.818 54.4518C168.911 36.7152 156.079 23.1039 139.332 13.6449L138.349 15.3863ZM176.033 55.354C184.844 72.6718 189.271 93.4874 189.271 117.837H191.271C191.271 93.2484 186.8 72.1066 177.816 54.4471L176.033 55.354ZM189.271 117.837C189.271 142.262 184.806 163.193 175.918 180.664L177.701 181.571C186.762 163.759 191.271 142.503 191.271 117.837H189.271ZM175.916 180.668C167.106 198.136 154.358 211.565 137.659 220.977L138.641 222.719C155.693 213.108 168.717 199.384 177.702 181.568L175.916 180.668ZM137.662 220.975C120.968 230.309 100.741 235 76.94 235V237C101.002 237 121.583 232.257 138.638 222.721L137.662 220.975ZM36.2099 205.935H74.984V203.935H36.2099V205.935ZM74.984 205.935C93.0534 205.935 108.155 202.537 120.235 195.679L119.247 193.94C107.549 200.582 92.8124 203.935 74.984 203.935V205.935ZM120.239 195.677C132.315 188.743 141.353 178.726 147.343 165.657L145.525 164.823C139.703 177.527 130.945 187.223 119.243 193.942L120.239 195.677ZM147.344 165.655C153.325 152.528 156.294 136.577 156.294 117.837H154.294C154.294 136.375 151.356 152.026 145.524 164.825L147.344 165.655ZM156.294 117.837C156.294 99.2489 153.325 83.4122 147.343 70.3618L145.525 71.1951C151.356 83.9173 154.294 99.4528 154.294 117.837H156.294ZM147.345 70.3662C141.435 57.3008 132.59 47.3566 120.816 40.5724L119.817 42.3054C131.207 48.8678 139.775 58.4833 145.523 71.1906L147.345 70.3662ZM120.816 40.5724C109.044 33.7901 94.4782 30.429 77.1701 30.429V32.429C94.2256 32.429 108.424 35.7411 119.817 42.3054L120.816 40.5724ZM77.1701 30.429H36.2099V32.429H77.1701V30.429ZM35.2099 31.429V204.935H37.2099V31.429H35.2099ZM262.901 228.406L262.385 229.263L262.391 229.267L262.901 228.406ZM233.906 196.766L233.01 197.209L233.013 197.215L233.906 196.766ZM233.906 100.923L233.01 100.48L233.008 100.484L233.906 100.923ZM262.44 68.5923L261.907 67.7467L261.904 67.7482L262.44 68.5923ZM334.466 61.919L334.798 60.9759L334.466 61.919ZM359.663 77.4517L358.975 78.1773L359.663 77.4517ZM377.267 104.95L376.333 105.306L376.333 105.308L377.267 104.95ZM383.71 157.991V158.991H384.71V157.991H383.71ZM243.226 157.991H242.226V158.991H243.226V157.991ZM243.226 132.219V131.219H242.226V132.219H243.226ZM349.999 132.219V133.219H350.999V132.219H349.999ZM344.476 108.172L343.589 108.634L343.591 108.638L344.476 108.172ZM328.943 91.4886L328.419 92.34L328.423 92.3426L328.943 91.4886ZM280.389 92.5241L280.938 93.3603L280.94 93.3589L280.389 92.5241ZM263.821 110.933L262.932 110.475L262.93 110.479L263.821 110.933ZM264.281 185.72L263.387 186.167L263.39 186.174L264.281 185.72ZM281.885 204.705L281.382 205.569L281.389 205.573L281.885 204.705ZM326.067 208.386L326.391 209.332L326.403 209.328L326.067 208.386ZM339.989 199.872L339.296 199.151L339.989 199.872ZM348.963 185.95L349.14 184.966L348.32 184.818L348.027 185.599L348.963 185.95ZM381.524 191.818L382.489 192.081L382.776 191.028L381.702 190.834L381.524 191.818ZM367.487 217.016L366.757 216.332L366.757 216.332L367.487 217.016ZM342.29 233.699L342.653 234.631L342.656 234.629L342.29 233.699ZM307.888 238.567C290.621 238.567 275.808 234.879 263.41 227.546L262.391 229.267C275.152 236.815 290.331 240.567 307.888 240.567V238.567ZM263.416 227.549C251.082 220.134 241.545 209.732 234.8 196.316L233.013 197.215C239.921 210.953 249.713 221.645 262.385 229.263L263.416 227.549ZM234.803 196.322C228.133 182.832 224.781 166.997 224.781 148.787H222.781C222.781 167.242 226.179 183.392 233.01 197.209L234.803 196.322ZM224.781 148.787C224.781 130.81 228.132 115.01 234.805 101.363L233.008 100.484C226.18 114.45 222.781 130.559 222.781 148.787H224.781ZM234.803 101.367C241.554 87.7125 250.945 77.0789 262.977 69.4364L261.904 67.7482C249.543 75.6001 239.912 86.5204 233.01 100.48L234.803 101.367ZM262.974 69.4379C275.067 61.8044 289.22 57.9716 305.472 57.9716V55.9716C288.893 55.9716 274.359 59.8859 261.907 67.7467L262.974 69.4379ZM305.472 57.9716C315.331 57.9716 324.883 59.6017 334.134 62.8622L334.798 60.9759C325.333 57.6398 315.556 55.9716 305.472 55.9716V57.9716ZM334.134 62.8622C343.354 66.1122 351.633 71.2138 358.975 78.1773L360.352 76.7262C352.813 69.5759 344.293 64.3225 334.798 60.9759L334.134 62.8622ZM358.975 78.1773C366.289 85.1142 372.081 94.1462 376.333 105.306L378.202 104.594C373.862 93.2032 367.918 83.9028 360.352 76.7262L358.975 78.1773ZM376.333 105.308C380.573 116.362 382.71 129.848 382.71 145.795H384.71C384.71 129.681 382.552 115.937 378.201 104.592L376.333 105.308ZM382.71 145.795V157.991H384.71V145.795H382.71ZM383.71 156.991H243.226V158.991H383.71V156.991ZM244.226 157.991V132.219H242.226V157.991H244.226ZM243.226 133.219H349.999V131.219H243.226V133.219ZM350.999 132.219C350.999 123.029 349.129 114.849 345.36 107.705L343.591 108.638C347.187 115.455 348.999 123.306 348.999 132.219H350.999ZM345.362 107.709C341.598 100.494 336.295 94.7965 329.463 90.6346L328.423 92.3426C334.938 96.3114 339.99 101.736 343.589 108.634L345.362 107.709ZM329.468 90.6373C322.691 86.461 314.757 84.3906 305.702 84.3906V86.3906C314.442 86.3906 322.002 88.3855 328.419 92.34L329.468 90.6373ZM305.702 84.3906C295.865 84.3906 287.231 86.8134 279.839 91.6894L280.94 93.3589C287.968 88.7236 296.209 86.3906 305.702 86.3906V84.3906ZM279.841 91.688C272.563 96.4617 266.923 102.728 262.932 110.475L264.71 111.391C268.543 103.951 273.949 97.9446 280.938 93.3603L279.841 91.688ZM262.93 110.479C259.02 118.143 257.068 126.469 257.068 135.44H259.068C259.068 126.77 260.952 118.758 264.712 111.388L262.93 110.479ZM257.068 135.44V155.575H259.068V135.44H257.068ZM257.068 155.575C257.068 167.502 259.159 177.712 263.387 186.167L265.176 185.273C261.12 177.161 259.068 167.274 259.068 155.575H257.068ZM263.39 186.174C267.69 194.617 273.687 201.093 281.382 205.569L282.388 203.84C275.049 199.571 269.31 193.391 265.172 185.266L263.39 186.174ZM281.389 205.573C289.08 209.968 298.039 212.148 308.233 212.148V210.148C298.33 210.148 289.724 208.032 282.381 203.836L281.389 205.573ZM308.233 212.148C314.847 212.148 320.903 211.214 326.391 209.332L325.742 207.44C320.492 209.241 314.659 210.148 308.233 210.148V212.148ZM326.403 209.328C331.899 207.365 336.662 204.455 340.681 200.593L339.296 199.151C335.491 202.807 330.974 205.572 325.73 207.445L326.403 209.328ZM340.681 200.593C344.71 196.722 347.781 191.952 349.899 186.301L348.027 185.599C346.004 190.994 343.091 195.505 339.296 199.151L340.681 200.593ZM348.786 186.934L381.347 192.802L381.702 190.834L349.14 184.966L348.786 186.934ZM380.559 191.556C377.994 200.987 373.395 209.242 366.757 216.332L368.217 217.699C375.079 210.369 379.839 201.825 382.489 192.081L380.559 191.556ZM366.757 216.332C360.196 223.346 351.926 228.828 341.923 232.768L342.656 234.629C352.904 230.592 361.432 224.953 368.217 217.699L366.757 216.332ZM341.927 232.767C332.014 236.626 320.674 238.567 307.888 238.567V240.567C320.875 240.567 332.468 238.596 342.653 234.631L341.927 232.767ZM568.003 59.2727L568.943 59.6136L569.429 58.2727H568.003V59.2727ZM503.916 236V237H504.617L504.856 236.341L503.916 236ZM467.098 236L466.158 236.341L466.397 237H467.098V236ZM402.896 59.2727V58.2727H401.469L401.956 59.6142L402.896 59.2727ZM439.829 59.2727L440.779 58.9601L440.553 58.2727H439.829V59.2727ZM484.586 195.27L483.636 195.582L483.863 196.27H484.586V195.27ZM486.427 195.27V196.27H487.151L487.377 195.582L486.427 195.27ZM531.069 59.2727V58.2727H530.345L530.119 58.9608L531.069 59.2727ZM567.062 58.9318L502.976 235.659L504.856 236.341L568.943 59.6136L567.062 58.9318ZM503.916 235H467.098V237H503.916V235ZM468.038 235.659L403.836 58.9313L401.956 59.6142L466.158 236.341L468.038 235.659ZM402.896 60.2727H439.829V58.2727H402.896V60.2727ZM438.879 59.5853L483.636 195.582L485.536 194.957L440.779 58.9601L438.879 59.5853ZM484.586 196.27H486.427V194.27H484.586V196.27ZM487.377 195.582L532.019 59.5846L530.119 58.9608L485.477 194.958L487.377 195.582ZM531.069 60.2727H568.003V58.2727H531.069V60.2727ZM625.502 228.406L624.987 229.263L624.993 229.267L625.502 228.406ZM596.508 196.766L595.611 197.209L595.614 197.215L596.508 196.766ZM596.508 100.923L595.611 100.48L595.609 100.484L596.508 100.923ZM625.042 68.5923L624.508 67.7467L624.506 67.7482L625.042 68.5923ZM697.068 61.919L697.4 60.9759L697.068 61.919ZM722.265 77.4517L721.577 78.1773L722.265 77.4517ZM739.869 104.95L738.934 105.306L738.935 105.308L739.869 104.95ZM746.312 157.991V158.991H747.312V157.991H746.312ZM605.827 157.991H604.827V158.991H605.827V157.991ZM605.827 132.219V131.219H604.827V132.219H605.827ZM712.6 132.219V133.219H713.6V132.219H712.6ZM707.077 108.172L706.191 108.634L706.193 108.638L707.077 108.172ZM691.545 91.4886L691.02 92.34L691.024 92.3426L691.545 91.4886ZM642.991 92.5241L643.539 93.3603L643.541 93.3589L642.991 92.5241ZM626.423 110.933L625.534 110.475L625.532 110.479L626.423 110.933ZM626.883 185.72L625.988 186.167L625.992 186.174L626.883 185.72ZM644.487 204.705L643.984 205.569L643.99 205.573L644.487 204.705ZM688.668 208.386L688.993 209.332L689.005 209.328L688.668 208.386ZM702.59 199.872L701.897 199.151L702.59 199.872ZM711.565 185.95L711.742 184.966L710.921 184.818L710.628 185.599L711.565 185.95ZM744.126 191.818L745.091 192.081L745.377 191.028L744.303 190.834L744.126 191.818ZM730.089 217.016L729.359 216.332L729.359 216.332L730.089 217.016ZM704.891 233.699L705.254 234.631L705.258 234.629L704.891 233.699ZM670.489 238.567C653.222 238.567 638.409 234.879 626.011 227.546L624.993 229.267C637.754 236.815 652.933 240.567 670.489 240.567V238.567ZM626.017 227.549C613.684 220.134 604.147 209.732 597.401 196.316L595.614 197.215C602.522 210.953 612.315 221.645 624.987 229.263L626.017 227.549ZM597.404 196.322C590.735 182.832 587.383 166.997 587.383 148.787H585.383C585.383 167.242 588.781 183.392 595.611 197.209L597.404 196.322ZM587.383 148.787C587.383 130.81 590.734 115.01 597.406 101.363L595.609 100.484C588.782 114.45 585.383 130.559 585.383 148.787H587.383ZM597.404 101.367C604.155 87.7125 613.547 77.0789 625.578 69.4364L624.506 67.7482C612.145 75.6001 602.514 86.5204 595.611 100.48L597.404 101.367ZM625.576 69.4379C637.668 61.8044 651.822 57.9716 668.073 57.9716V55.9716C651.495 55.9716 636.961 59.8859 624.508 67.7467L625.576 69.4379ZM668.073 57.9716C677.932 57.9716 687.484 59.6017 696.735 62.8622L697.4 60.9759C687.935 57.6398 678.157 55.9716 668.073 55.9716V57.9716ZM696.735 62.8622C705.956 66.1122 714.235 71.2138 721.577 78.1773L722.953 76.7262C715.414 69.5759 706.895 64.3225 697.4 60.9759L696.735 62.8622ZM721.577 78.1773C728.891 85.1142 734.683 94.1462 738.934 105.306L740.803 104.594C736.464 93.2032 730.52 83.9028 722.953 76.7262L721.577 78.1773ZM738.935 105.308C743.175 116.362 745.312 129.848 745.312 145.795H747.312C747.312 129.681 745.154 115.937 740.802 104.592L738.935 105.308ZM745.312 145.795V157.991H747.312V145.795H745.312ZM746.312 156.991H605.827V158.991H746.312V156.991ZM606.827 157.991V132.219H604.827V157.991H606.827ZM605.827 133.219H712.6V131.219H605.827V133.219ZM713.6 132.219C713.6 123.029 711.73 114.849 707.962 107.705L706.193 108.638C709.788 115.455 711.6 123.306 711.6 132.219H713.6ZM707.964 107.709C704.2 100.494 698.897 94.7965 692.065 90.6346L691.024 92.3426C697.539 96.3114 702.592 101.736 706.191 108.634L707.964 107.709ZM692.069 90.6373C685.293 86.461 677.358 84.3906 668.303 84.3906V86.3906C677.044 86.3906 684.604 88.3855 691.02 92.34L692.069 90.6373ZM668.303 84.3906C658.467 84.3906 649.833 86.8134 642.44 91.6894L643.541 93.3589C650.569 88.7236 658.81 86.3906 668.303 86.3906V84.3906ZM642.442 91.688C635.164 96.4617 629.524 102.728 625.534 110.475L627.312 111.391C631.145 103.951 636.55 97.9446 643.539 93.3603L642.442 91.688ZM625.532 110.479C621.622 118.143 619.67 126.469 619.67 135.44H621.67C621.67 126.77 623.553 118.758 627.313 111.388L625.532 110.479ZM619.67 135.44V155.575H621.67V135.44H619.67ZM619.67 155.575C619.67 167.502 621.76 177.712 625.988 186.167L627.777 185.273C623.721 177.161 621.67 167.274 621.67 155.575H619.67ZM625.992 186.174C630.291 194.617 636.289 201.093 643.984 205.569L644.989 203.84C637.65 199.571 631.912 193.391 627.774 185.266L625.992 186.174ZM643.99 205.573C651.681 209.968 660.64 212.148 670.835 212.148V210.148C660.932 210.148 652.326 208.032 644.983 203.836L643.99 205.573ZM670.835 212.148C677.449 212.148 683.505 211.214 688.993 209.332L688.344 207.44C683.093 209.241 677.26 210.148 670.835 210.148V212.148ZM689.005 209.328C694.5 207.365 699.264 204.455 703.283 200.593L701.897 199.151C698.093 202.807 693.575 205.572 688.332 207.445L689.005 209.328ZM703.283 200.593C707.312 196.722 710.382 191.952 712.501 186.301L710.628 185.599C708.605 190.994 705.692 195.505 701.897 199.151L703.283 200.593ZM711.387 186.934L743.948 192.802L744.303 190.834L711.742 184.966L711.387 186.934ZM743.161 191.556C740.595 200.987 735.997 209.242 729.359 216.332L730.819 217.699C737.681 210.369 742.44 201.825 745.091 192.081L743.161 191.556ZM729.359 216.332C722.798 223.346 714.528 228.828 704.525 232.768L705.258 234.629C715.505 230.592 724.033 224.953 730.819 217.699L729.359 216.332ZM704.529 232.767C694.616 236.626 683.275 238.567 670.489 238.567V240.567C683.476 240.567 695.07 238.596 705.254 234.631L704.529 232.767ZM818.884 0.363632H819.884V-0.636368H818.884V0.363632ZM818.884 236V237H819.884V236H818.884ZM784.482 236H783.482V237H784.482V236ZM784.482 0.363632V-0.636368H783.482V0.363632H784.482ZM817.884 0.363632V236H819.884V0.363632H817.884ZM818.884 235H784.482V237H818.884V235ZM785.482 236V0.363632H783.482V236H785.482ZM784.482 1.36363H818.884V-0.636368H784.482V1.36363ZM867.467 196.305L868.361 195.858L867.467 196.305ZM896.231 68.3622L896.755 69.2141L896.231 68.3622ZM982.984 68.3622L982.46 69.2141L982.984 68.3622ZM1011.75 196.305L1010.85 195.858L1011.75 196.305ZM982.984 228.176L983.507 229.028L982.984 228.176ZM966.416 202.173L965.789 201.394L966.416 202.173ZM982.063 179.507L981.124 179.164L981.122 179.17L982.063 179.507ZM982.063 117.261L981.121 117.596L981.124 117.605L982.063 117.261ZM966.416 94.3651L965.784 95.1401L966.416 94.3651ZM912.799 94.3651L912.171 93.5866L912.167 93.59L912.799 94.3651ZM897.036 117.261L896.096 116.92L896.095 116.925L897.036 117.261ZM897.036 179.507L896.095 179.844L896.097 179.851L897.036 179.507ZM912.799 202.173L912.172 202.953L912.176 202.956L912.799 202.173ZM939.607 238.567C923.197 238.567 908.925 234.808 896.755 227.324L895.707 229.028C908.236 236.732 922.881 240.567 939.607 240.567V238.567ZM896.755 227.324C884.573 219.833 875.109 209.354 868.361 195.858L866.572 196.753C873.478 210.564 883.19 221.331 895.707 229.028L896.755 227.324ZM868.361 195.858C861.616 182.368 858.227 166.572 858.227 148.442H856.227C856.227 166.823 859.664 182.936 866.572 196.753L868.361 195.858ZM858.227 148.442C858.227 130.234 861.616 114.36 868.362 100.793L866.571 99.9028C859.664 113.796 856.227 129.985 856.227 148.442H858.227ZM868.362 100.793C875.11 87.2206 884.574 76.704 896.755 69.2141L895.707 67.5104C883.189 75.2079 873.476 86.0151 866.571 99.9028L868.362 100.793ZM896.755 69.2141C908.925 61.7304 923.197 57.9716 939.607 57.9716V55.9716C922.881 55.9716 908.236 59.8065 895.707 67.5104L896.755 69.2141ZM939.607 57.9716C956.017 57.9716 970.289 61.7304 982.46 69.2141L983.507 67.5104C970.979 59.8065 956.333 55.9716 939.607 55.9716V57.9716ZM982.46 69.2141C994.64 76.704 1004.1 87.2206 1010.85 100.793L1012.64 99.9028C1005.74 86.0151 996.026 75.2079 983.507 67.5104L982.46 69.2141ZM1010.85 100.793C1017.6 114.36 1020.99 130.234 1020.99 148.442H1022.99C1022.99 129.985 1019.55 113.796 1012.64 99.9028L1010.85 100.793ZM1020.99 148.442C1020.99 166.572 1017.6 182.368 1010.85 195.858L1012.64 196.753C1019.55 182.936 1022.99 166.823 1022.99 148.442H1020.99ZM1010.85 195.858C1004.11 209.354 994.642 219.833 982.46 227.324L983.507 229.028C996.024 221.331 1005.74 210.564 1012.64 196.753L1010.85 195.858ZM982.46 227.324C970.289 234.808 956.017 238.567 939.607 238.567V240.567C956.333 240.567 970.979 236.732 983.507 229.028L982.46 227.324ZM939.722 211.688C950.645 211.688 959.776 208.797 967.042 202.953L965.789 201.394C958.941 206.902 950.277 209.688 939.722 209.688V211.688ZM967.042 202.953C974.258 197.149 979.574 189.433 983.005 179.844L981.122 179.17C977.802 188.45 972.687 195.846 965.789 201.394L967.042 202.953ZM983.002 179.851C986.499 170.293 988.241 159.781 988.241 148.327H986.241C986.241 159.577 984.531 169.852 981.124 179.164L983.002 179.851ZM988.241 148.327C988.241 136.948 986.499 126.475 983.002 116.918L981.124 117.605C984.531 126.917 986.241 137.154 986.241 148.327H988.241ZM983.006 116.927C979.576 107.262 974.261 99.4708 967.047 93.59L965.784 95.1401C972.683 100.765 977.8 108.238 981.121 117.596L983.006 116.927ZM967.047 93.59C959.781 87.6665 950.648 84.7358 939.722 84.7358V86.7358C950.274 86.7358 958.936 89.5579 965.784 95.1401L967.047 93.59ZM939.722 84.7358C928.721 84.7358 919.513 87.6656 912.171 93.5866L913.427 95.1435C920.352 89.5588 929.092 86.7358 939.722 86.7358V84.7358ZM912.167 93.59C904.955 99.4694 899.602 107.258 896.096 116.92L897.976 117.602C901.373 108.242 906.529 100.766 913.431 95.1401L912.167 93.59ZM896.095 116.925C892.676 126.48 890.974 136.951 890.974 148.327H892.974C892.974 137.152 894.646 126.912 897.978 117.598L896.095 116.925ZM890.974 148.327C890.974 159.779 892.676 170.288 896.095 179.844L897.978 179.17C894.646 169.857 892.974 159.579 892.974 148.327H890.974ZM896.097 179.851C899.604 189.437 904.958 197.15 912.172 202.953L913.426 201.394C906.526 195.844 901.372 188.446 897.975 179.164L896.097 179.851ZM912.176 202.956C919.518 208.798 928.725 211.688 939.722 211.688V209.688C929.089 209.688 920.347 206.901 913.422 201.391L912.176 202.956ZM1060.39 302.273H1059.39V303.273H1060.39V302.273ZM1060.39 59.2727V58.2727H1059.39V59.2727H1060.39ZM1093.98 59.2727H1094.98V58.2727H1093.98V59.2727ZM1093.98 87.9219H1092.98V88.9219H1093.98V87.9219ZM1096.86 87.9219V88.9219H1097.46L1097.74 88.3982L1096.86 87.9219ZM1105.49 75.1506L1106.28 75.7645L1105.49 75.1506ZM1121.14 62.4943L1121.61 63.3742L1121.62 63.3699L1121.14 62.4943ZM1185.8 67.7869L1185.26 68.6277L1185.8 67.7869ZM1212.15 98.9673L1211.24 99.3919L1211.24 99.3961L1212.15 98.9673ZM1212.26 197.111L1213.17 197.535L1213.17 197.533L1212.26 197.111ZM1186.03 228.521L1186.58 229.358L1186.58 229.355L1186.03 228.521ZM1121.6 234.044L1121.13 234.926L1121.13 234.928L1121.6 234.044ZM1105.72 221.388L1106.5 220.766L1105.72 221.388ZM1096.86 208.501L1097.74 208.019L1097.45 207.501H1096.86V208.501ZM1094.79 208.501V207.501H1093.79V208.501H1094.79ZM1094.79 302.273V303.273H1095.79V302.273H1094.79ZM1099.51 180.312L1098.57 180.672L1099.51 180.312ZM1115.16 202.288L1114.54 203.079L1114.55 203.083L1115.16 202.288ZM1166.01 201.943L1166.63 202.728L1166.64 202.724L1166.01 201.943ZM1181.66 179.507L1180.72 179.15L1180.72 179.157L1181.66 179.507ZM1181.77 116.226L1180.84 116.574L1180.84 116.581L1181.77 116.226ZM1166.13 94.25L1165.51 95.0394L1165.52 95.0426L1166.13 94.25ZM1114.93 93.9048L1114.33 93.1027L1114.32 93.1059L1114.93 93.9048ZM1099.39 115.42L1100.33 115.778L1099.39 115.42ZM1061.39 302.273V59.2727H1059.39V302.273H1061.39ZM1060.39 60.2727H1093.98V58.2727H1060.39V60.2727ZM1092.98 59.2727V87.9219H1094.98V59.2727H1092.98ZM1093.98 88.9219H1096.86V86.9219H1093.98V88.9219ZM1097.74 88.3982C1099.7 84.7811 1102.54 80.5714 1106.28 75.7645L1104.7 74.5366C1100.92 79.3945 1098.01 83.699 1095.98 87.4456L1097.74 88.3982ZM1106.28 75.7645C1109.94 71.0644 1115.03 66.9286 1121.61 63.3741L1120.66 61.6145C1113.9 65.2702 1108.56 69.572 1104.7 74.5366L1106.28 75.7645ZM1121.62 63.3699C1128.1 59.7977 1136.73 57.9716 1147.6 57.9716V55.9716C1136.53 55.9716 1127.53 57.8273 1120.66 61.6187L1121.62 63.3699ZM1147.6 57.9716C1161.69 57.9716 1174.23 61.5289 1185.26 68.6277L1186.34 66.9461C1174.97 59.6245 1162.05 55.9716 1147.6 55.9716V57.9716ZM1185.26 68.6277C1196.28 75.7238 1204.95 85.9634 1211.24 99.3919L1213.05 98.5428C1206.62 84.8179 1197.72 74.2705 1186.34 66.9461L1185.26 68.6277ZM1211.24 99.3961C1217.61 112.808 1220.81 128.992 1220.81 147.982H1222.81C1222.81 128.773 1219.57 112.28 1213.05 98.5386L1211.24 99.3961ZM1220.81 147.982C1220.81 166.973 1217.65 183.198 1211.36 196.688L1213.17 197.533C1219.61 183.717 1222.81 167.189 1222.81 147.982H1220.81ZM1211.36 196.686C1205.06 210.118 1196.43 220.437 1185.48 227.688L1186.58 229.355C1197.88 221.878 1206.73 211.257 1213.17 197.535L1211.36 196.686ZM1185.48 227.685C1174.53 234.857 1162.03 238.452 1147.95 238.452V240.452C1162.39 240.452 1175.28 236.759 1186.58 229.358L1185.48 227.685ZM1147.95 238.452C1137.31 238.452 1128.7 236.665 1122.07 233.16L1121.13 234.928C1128.15 238.633 1137.11 240.452 1147.95 240.452V238.452ZM1122.07 233.162C1115.41 229.606 1110.24 225.469 1106.5 220.766L1104.94 222.009C1108.88 226.972 1114.28 231.272 1121.13 234.926L1122.07 233.162ZM1106.5 220.766C1102.69 215.96 1099.77 211.712 1097.74 208.019L1095.99 208.984C1098.09 212.807 1101.08 217.151 1104.94 222.009L1106.5 220.766ZM1096.86 207.501H1094.79V209.501H1096.86V207.501ZM1093.79 208.501V302.273H1095.79V208.501H1093.79ZM1094.79 301.273H1060.39V303.273H1094.79V301.273ZM1093.1 147.636C1093.1 160.157 1094.92 171.176 1098.57 180.672L1100.44 179.953C1096.89 170.734 1095.1 159.968 1095.1 147.636H1093.1ZM1098.57 180.672C1102.23 190.172 1107.55 197.657 1114.54 203.079L1115.77 201.498C1109.11 196.334 1103.99 189.169 1100.44 179.953L1098.57 180.672ZM1114.55 203.083C1121.57 208.452 1130.16 211.112 1140.24 211.112V209.112C1130.53 209.112 1122.39 206.557 1115.76 201.494L1114.55 203.083ZM1140.24 211.112C1150.7 211.112 1159.52 208.336 1166.63 202.728L1165.39 201.158C1158.69 206.442 1150.33 209.112 1140.24 209.112V211.112ZM1166.64 202.724C1173.7 197.074 1179.01 189.437 1182.59 179.857L1180.72 179.157C1177.25 188.446 1172.13 195.767 1165.39 201.162L1166.64 202.724ZM1182.59 179.864C1186.25 170.298 1188.07 159.551 1188.07 147.636H1186.07C1186.07 159.347 1184.28 169.847 1180.72 179.15L1182.59 179.864ZM1188.07 147.636C1188.07 135.877 1186.29 125.283 1182.71 115.87L1180.84 116.581C1184.32 125.731 1186.07 136.078 1186.07 147.636H1188.07ZM1182.71 115.877C1179.2 106.443 1173.88 98.9549 1166.74 93.4574L1165.52 95.0426C1172.33 100.284 1177.44 107.446 1180.84 116.574L1182.71 115.877ZM1166.74 93.4606C1159.63 87.9308 1150.77 85.196 1140.24 85.196V87.196C1150.41 87.196 1158.81 89.8305 1165.51 95.0394L1166.74 93.4606ZM1140.24 85.196C1130.09 85.196 1121.43 87.8153 1114.33 93.1027L1115.52 94.707C1122.23 89.7159 1130.45 87.196 1140.24 87.196V85.196ZM1114.32 93.1059C1107.33 98.3745 1102.04 105.71 1098.46 115.063L1100.33 115.778C1103.8 106.722 1108.87 99.7136 1115.53 94.7038L1114.32 93.1059ZM1098.46 115.063C1094.88 124.405 1093.1 135.27 1093.1 147.636H1095.1C1095.1 135.457 1096.85 124.844 1100.33 115.778L1098.46 115.063Z" fill="#DADADA" mask="url(#path-1-outside-1_46_13816)"/>
<defs>
<filter id="filter0_i_46_13816" x="0.658203" y="0.363281" width="1227.15" height="307.909" filterUnits="userSpaceOnUse" color-interpolation-filters="sRGB">
<feFlood flood-opacity="0" result="BackgroundImageFix"/>
<feBlend mode="normal" in="SourceGraphic" in2="BackgroundImageFix" result="shape"/>
<feColorMatrix in="SourceAlpha" type="matrix" values="0 0 0 0 0 0 0 0 0 0 0 0 0 0 0 0 0 0 127 0" result="hardAlpha"/>
<feOffset dx="6" dy="6"/>
<feGaussianBlur stdDeviation="4"/>
<feComposite in2="hardAlpha" operator="arithmetic" k2="-1" k3="1"/>
<feColorMatrix type="matrix" values="0 0 0 0 0.00392157 0 0 0 0 0.00784314 0 0 0 0 0.00784314 0 0 0 0.1 0"/>
<feBlend mode="normal" in2="shape" result="effect1_innerShadow_46_13816"/>
</filter>
</defs>
</svg>
