<svg width="1225" height="306" viewBox="0 0 1225 306" fill="none" xmlns="http://www.w3.org/2000/svg">
<mask id="path-1-outside-1_46_13832" maskUnits="userSpaceOnUse" x="-1" y="-1" width="1227" height="308" fill="black">
<rect fill="white" x="-1" y="-1" width="1227" height="308"/>
<path d="M138.555 65.2642C137.327 54.3722 132.265 45.9347 123.367 39.9517C114.469 33.892 103.271 30.8622 89.7706 30.8622C80.1058 30.8622 71.745 32.3963 64.6882 35.4645C57.6314 38.456 52.147 42.598 48.2351 47.8906C44.3999 53.1065 42.4822 59.0511 42.4822 65.7244C42.4822 71.3239 43.7862 76.1562 46.3942 80.2216C49.0788 84.2869 52.5689 87.7003 56.8643 90.4616C61.2365 93.1463 65.9155 95.4091 70.9013 97.25C75.8871 99.0142 80.6811 100.472 85.2834 101.622L108.295 107.605C115.812 109.446 123.521 111.939 131.421 115.084C139.322 118.229 146.647 122.371 153.397 127.51C160.147 132.649 165.593 139.016 169.735 146.609C173.954 154.203 176.063 163.293 176.063 173.878C176.063 187.224 172.612 199.075 165.708 209.43C158.881 219.786 148.948 227.955 135.908 233.938C122.945 239.92 107.259 242.912 88.8501 242.912C71.2081 242.912 55.9439 240.112 43.0575 234.513C30.1712 228.913 20.0845 220.974 12.7976 210.696C5.51065 200.341 1.48367 188.068 0.71662 173.878H36.3842C37.0746 182.392 39.8359 189.487 44.6683 195.163C49.5774 200.763 55.8288 204.943 63.4226 207.705C71.093 210.389 79.4922 211.732 88.62 211.732C98.6683 211.732 107.604 210.159 115.428 207.014C123.329 203.793 129.542 199.344 134.067 193.668C138.593 187.915 140.856 181.203 140.856 173.533C140.856 166.553 138.862 160.838 134.873 156.389C130.961 151.94 125.63 148.259 118.88 145.344C112.207 142.429 104.651 139.859 96.2138 137.635L68.37 130.041C49.5007 124.902 34.5433 117.347 23.4979 107.375C12.5291 97.4034 7.04475 84.2102 7.04475 67.7954C7.04475 54.2187 10.7266 42.3679 18.0902 32.2429C25.4538 22.1179 35.4254 14.2557 48.005 8.65625C60.5845 2.98011 74.7749 0.142037 90.576 0.142037C106.531 0.142037 120.606 2.94175 132.802 8.54119C145.075 14.1406 154.739 21.8494 161.796 31.6676C168.853 41.4091 172.535 52.6079 172.842 65.2642H138.555ZM327.737 165.709V62.2727H362.254V239H328.427V208.395H326.586C322.521 217.83 316.001 225.692 307.027 231.982C298.129 238.195 287.045 241.301 273.775 241.301C262.423 241.301 252.375 238.808 243.63 233.822C234.963 228.76 228.136 221.281 223.15 211.386C218.241 201.491 215.787 189.257 215.787 174.683V62.2727H250.189V170.541C250.189 182.584 253.525 192.172 260.199 199.305C266.872 206.439 275.539 210.006 286.201 210.006C292.645 210.006 299.049 208.395 305.416 205.173C311.859 201.952 317.19 197.081 321.409 190.561C325.704 184.041 327.814 175.757 327.737 165.709ZM408.478 305.273V62.2727H442.075V90.9219H444.951C446.945 87.2401 449.822 82.983 453.58 78.1506C457.339 73.3182 462.555 69.0994 469.228 65.4943C475.901 61.8125 484.722 59.9716 495.691 59.9716C509.958 59.9716 522.691 63.5767 533.89 70.7869C545.089 77.9972 553.871 88.3906 560.238 101.967C566.681 115.544 569.903 131.882 569.903 150.982C569.903 170.081 566.719 186.457 560.353 200.111C553.987 213.687 545.242 224.158 534.12 231.521C522.998 238.808 510.303 242.452 496.036 242.452C485.298 242.452 476.515 240.649 469.688 237.044C462.938 233.439 457.646 229.22 453.81 224.388C449.975 219.555 447.022 215.26 444.951 211.501H442.88V305.273H408.478ZM442.19 150.636C442.19 163.062 443.992 173.955 447.597 183.312C451.202 192.67 456.418 199.996 463.245 205.288C470.072 210.504 478.433 213.112 488.327 213.112C498.606 213.112 507.197 210.389 514.1 204.943C521.004 199.42 526.219 191.942 529.748 182.507C533.353 173.072 535.156 162.449 535.156 150.636C535.156 138.977 533.391 128.507 529.863 119.226C526.411 109.945 521.195 102.619 514.215 97.25C507.312 91.8807 498.683 89.196 488.327 89.196C478.356 89.196 469.918 91.7656 463.015 96.9048C456.188 102.044 451.011 109.216 447.482 118.42C443.954 127.625 442.19 138.364 442.19 150.636ZM608.447 305.273V62.2727H642.043V90.9219H644.92C646.914 87.2401 649.79 82.983 653.549 78.1506C657.308 73.3182 662.523 69.0994 669.197 65.4943C675.87 61.8125 684.691 59.9716 695.66 59.9716C709.927 59.9716 722.66 63.5767 733.859 70.7869C745.058 77.9972 753.84 88.3906 760.207 101.967C766.65 115.544 769.871 131.882 769.871 150.982C769.871 170.081 766.688 186.457 760.322 200.111C753.955 213.687 745.211 224.158 734.089 231.521C722.967 238.808 710.272 242.452 696.005 242.452C685.266 242.452 676.484 240.649 669.657 237.044C662.907 233.439 657.614 229.22 653.779 224.388C649.944 219.555 646.991 215.26 644.92 211.501H642.849V305.273H608.447ZM642.158 150.636C642.158 163.062 643.961 173.955 647.566 183.312C651.171 192.67 656.387 199.996 663.214 205.288C670.04 210.504 678.401 213.112 688.296 213.112C698.575 213.112 707.165 210.389 714.069 204.943C720.972 199.42 726.188 191.942 729.717 182.507C733.322 173.072 735.124 162.449 735.124 150.636C735.124 138.977 733.36 128.507 729.832 119.226C726.38 109.945 721.164 102.619 714.184 97.25C707.281 91.8807 698.651 89.196 688.296 89.196C678.325 89.196 669.887 91.7656 662.984 96.9048C656.157 102.044 650.979 109.216 647.451 118.42C643.923 127.625 642.158 138.364 642.158 150.636ZM882.857 242.567C866.289 242.567 851.83 238.77 839.481 231.176C827.131 223.582 817.543 212.959 810.717 199.305C803.89 185.652 800.477 169.697 800.477 151.442C800.477 133.109 803.89 117.078 810.717 103.348C817.543 89.6179 827.131 78.956 839.481 71.3622C851.83 63.7685 866.289 59.9716 882.857 59.9716C899.425 59.9716 913.884 63.7685 926.234 71.3622C938.583 78.956 948.171 89.6179 954.998 103.348C961.825 117.078 965.238 133.109 965.238 151.442C965.238 169.697 961.825 185.652 954.998 199.305C948.171 212.959 938.583 223.582 926.234 231.176C913.884 238.77 899.425 242.567 882.857 242.567ZM882.972 213.688C893.711 213.688 902.609 210.849 909.665 205.173C916.722 199.497 921.938 191.942 925.313 182.507C928.765 173.072 930.491 162.679 930.491 151.327C930.491 140.051 928.765 129.696 925.313 120.261C921.938 110.75 916.722 103.118 909.665 97.3651C902.609 91.6122 893.711 88.7358 882.972 88.7358C872.157 88.7358 863.183 91.6122 856.049 97.3651C848.992 103.118 843.738 110.75 840.286 120.261C836.911 129.696 835.224 140.051 835.224 151.327C835.224 162.679 836.911 173.072 840.286 182.507C843.738 191.942 848.992 199.497 856.049 205.173C863.183 210.849 872.157 213.688 882.972 213.688ZM1003.64 239V62.2727H1036.89V90.3466H1038.73C1041.95 80.8352 1047.63 73.3565 1055.76 67.9105C1063.97 62.3878 1073.25 59.6264 1083.6 59.6264C1085.75 59.6264 1088.28 59.7031 1091.2 59.8565C1094.19 60.0099 1096.53 60.2017 1098.21 60.4318V93.3381C1096.83 92.9545 1094.38 92.5327 1090.85 92.0724C1087.32 91.5355 1083.79 91.267 1080.27 91.267C1072.14 91.267 1064.89 92.9929 1058.52 96.4446C1052.23 99.8196 1047.24 104.537 1043.56 110.597C1039.88 116.58 1038.04 123.406 1038.04 131.077V239H1003.64ZM1220.92 62.2727V89.8864H1124.39V62.2727H1220.92ZM1150.28 19.9318H1184.68V187.109C1184.68 193.783 1185.68 198.807 1187.67 202.182C1189.67 205.48 1192.24 207.743 1195.38 208.97C1198.6 210.121 1202.09 210.696 1205.85 210.696C1208.61 210.696 1211.03 210.504 1213.1 210.121C1215.17 209.737 1216.78 209.43 1217.93 209.2L1224.14 237.619C1222.15 238.386 1219.31 239.153 1215.63 239.92C1211.95 240.764 1207.35 241.224 1201.82 241.301C1192.77 241.455 1184.33 239.844 1176.51 236.469C1168.69 233.094 1162.36 227.878 1157.53 220.821C1152.69 213.764 1150.28 204.905 1150.28 194.243V19.9318Z"/>
</mask>
<g filter="url(#filter0_i_46_13832)">
<path d="M138.555 65.2642C137.327 54.3722 132.265 45.9347 123.367 39.9517C114.469 33.892 103.271 30.8622 89.7706 30.8622C80.1058 30.8622 71.745 32.3963 64.6882 35.4645C57.6314 38.456 52.147 42.598 48.2351 47.8906C44.3999 53.1065 42.4822 59.0511 42.4822 65.7244C42.4822 71.3239 43.7862 76.1562 46.3942 80.2216C49.0788 84.2869 52.5689 87.7003 56.8643 90.4616C61.2365 93.1463 65.9155 95.4091 70.9013 97.25C75.8871 99.0142 80.6811 100.472 85.2834 101.622L108.295 107.605C115.812 109.446 123.521 111.939 131.421 115.084C139.322 118.229 146.647 122.371 153.397 127.51C160.147 132.649 165.593 139.016 169.735 146.609C173.954 154.203 176.063 163.293 176.063 173.878C176.063 187.224 172.612 199.075 165.708 209.43C158.881 219.786 148.948 227.955 135.908 233.938C122.945 239.92 107.259 242.912 88.8501 242.912C71.2081 242.912 55.9439 240.112 43.0575 234.513C30.1712 228.913 20.0845 220.974 12.7976 210.696C5.51065 200.341 1.48367 188.068 0.71662 173.878H36.3842C37.0746 182.392 39.8359 189.487 44.6683 195.163C49.5774 200.763 55.8288 204.943 63.4226 207.705C71.093 210.389 79.4922 211.732 88.62 211.732C98.6683 211.732 107.604 210.159 115.428 207.014C123.329 203.793 129.542 199.344 134.067 193.668C138.593 187.915 140.856 181.203 140.856 173.533C140.856 166.553 138.862 160.838 134.873 156.389C130.961 151.94 125.63 148.259 118.88 145.344C112.207 142.429 104.651 139.859 96.2138 137.635L68.37 130.041C49.5007 124.902 34.5433 117.347 23.4979 107.375C12.5291 97.4034 7.04475 84.2102 7.04475 67.7954C7.04475 54.2187 10.7266 42.3679 18.0902 32.2429C25.4538 22.1179 35.4254 14.2557 48.005 8.65625C60.5845 2.98011 74.7749 0.142037 90.576 0.142037C106.531 0.142037 120.606 2.94175 132.802 8.54119C145.075 14.1406 154.739 21.8494 161.796 31.6676C168.853 41.4091 172.535 52.6079 172.842 65.2642H138.555ZM327.737 165.709V62.2727H362.254V239H328.427V208.395H326.586C322.521 217.83 316.001 225.692 307.027 231.982C298.129 238.195 287.045 241.301 273.775 241.301C262.423 241.301 252.375 238.808 243.63 233.822C234.963 228.76 228.136 221.281 223.15 211.386C218.241 201.491 215.787 189.257 215.787 174.683V62.2727H250.189V170.541C250.189 182.584 253.525 192.172 260.199 199.305C266.872 206.439 275.539 210.006 286.201 210.006C292.645 210.006 299.049 208.395 305.416 205.173C311.859 201.952 317.19 197.081 321.409 190.561C325.704 184.041 327.814 175.757 327.737 165.709ZM408.478 305.273V62.2727H442.075V90.9219H444.951C446.945 87.2401 449.822 82.983 453.58 78.1506C457.339 73.3182 462.555 69.0994 469.228 65.4943C475.901 61.8125 484.722 59.9716 495.691 59.9716C509.958 59.9716 522.691 63.5767 533.89 70.7869C545.089 77.9972 553.871 88.3906 560.238 101.967C566.681 115.544 569.903 131.882 569.903 150.982C569.903 170.081 566.719 186.457 560.353 200.111C553.987 213.687 545.242 224.158 534.12 231.521C522.998 238.808 510.303 242.452 496.036 242.452C485.298 242.452 476.515 240.649 469.688 237.044C462.938 233.439 457.646 229.22 453.81 224.388C449.975 219.555 447.022 215.26 444.951 211.501H442.88V305.273H408.478ZM442.19 150.636C442.19 163.062 443.992 173.955 447.597 183.312C451.202 192.67 456.418 199.996 463.245 205.288C470.072 210.504 478.433 213.112 488.327 213.112C498.606 213.112 507.197 210.389 514.1 204.943C521.004 199.42 526.219 191.942 529.748 182.507C533.353 173.072 535.156 162.449 535.156 150.636C535.156 138.977 533.391 128.507 529.863 119.226C526.411 109.945 521.195 102.619 514.215 97.25C507.312 91.8807 498.683 89.196 488.327 89.196C478.356 89.196 469.918 91.7656 463.015 96.9048C456.188 102.044 451.011 109.216 447.482 118.42C443.954 127.625 442.19 138.364 442.19 150.636ZM608.447 305.273V62.2727H642.043V90.9219H644.92C646.914 87.2401 649.79 82.983 653.549 78.1506C657.308 73.3182 662.523 69.0994 669.197 65.4943C675.87 61.8125 684.691 59.9716 695.66 59.9716C709.927 59.9716 722.66 63.5767 733.859 70.7869C745.058 77.9972 753.84 88.3906 760.207 101.967C766.65 115.544 769.871 131.882 769.871 150.982C769.871 170.081 766.688 186.457 760.322 200.111C753.955 213.687 745.211 224.158 734.089 231.521C722.967 238.808 710.272 242.452 696.005 242.452C685.266 242.452 676.484 240.649 669.657 237.044C662.907 233.439 657.614 229.22 653.779 224.388C649.944 219.555 646.991 215.26 644.92 211.501H642.849V305.273H608.447ZM642.158 150.636C642.158 163.062 643.961 173.955 647.566 183.312C651.171 192.67 656.387 199.996 663.214 205.288C670.04 210.504 678.401 213.112 688.296 213.112C698.575 213.112 707.165 210.389 714.069 204.943C720.972 199.42 726.188 191.942 729.717 182.507C733.322 173.072 735.124 162.449 735.124 150.636C735.124 138.977 733.36 128.507 729.832 119.226C726.38 109.945 721.164 102.619 714.184 97.25C707.281 91.8807 698.651 89.196 688.296 89.196C678.325 89.196 669.887 91.7656 662.984 96.9048C656.157 102.044 650.979 109.216 647.451 118.42C643.923 127.625 642.158 138.364 642.158 150.636ZM882.857 242.567C866.289 242.567 851.83 238.77 839.481 231.176C827.131 223.582 817.543 212.959 810.717 199.305C803.89 185.652 800.477 169.697 800.477 151.442C800.477 133.109 803.89 117.078 810.717 103.348C817.543 89.6179 827.131 78.956 839.481 71.3622C851.83 63.7685 866.289 59.9716 882.857 59.9716C899.425 59.9716 913.884 63.7685 926.234 71.3622C938.583 78.956 948.171 89.6179 954.998 103.348C961.825 117.078 965.238 133.109 965.238 151.442C965.238 169.697 961.825 185.652 954.998 199.305C948.171 212.959 938.583 223.582 926.234 231.176C913.884 238.77 899.425 242.567 882.857 242.567ZM882.972 213.688C893.711 213.688 902.609 210.849 909.665 205.173C916.722 199.497 921.938 191.942 925.313 182.507C928.765 173.072 930.491 162.679 930.491 151.327C930.491 140.051 928.765 129.696 925.313 120.261C921.938 110.75 916.722 103.118 909.665 97.3651C902.609 91.6122 893.711 88.7358 882.972 88.7358C872.157 88.7358 863.183 91.6122 856.049 97.3651C848.992 103.118 843.738 110.75 840.286 120.261C836.911 129.696 835.224 140.051 835.224 151.327C835.224 162.679 836.911 173.072 840.286 182.507C843.738 191.942 848.992 199.497 856.049 205.173C863.183 210.849 872.157 213.688 882.972 213.688ZM1003.64 239V62.2727H1036.89V90.3466H1038.73C1041.95 80.8352 1047.63 73.3565 1055.76 67.9105C1063.97 62.3878 1073.25 59.6264 1083.6 59.6264C1085.75 59.6264 1088.28 59.7031 1091.2 59.8565C1094.19 60.0099 1096.53 60.2017 1098.21 60.4318V93.3381C1096.83 92.9545 1094.38 92.5327 1090.85 92.0724C1087.32 91.5355 1083.79 91.267 1080.27 91.267C1072.14 91.267 1064.89 92.9929 1058.52 96.4446C1052.23 99.8196 1047.24 104.537 1043.56 110.597C1039.88 116.58 1038.04 123.406 1038.04 131.077V239H1003.64ZM1220.92 62.2727V89.8864H1124.39V62.2727H1220.92ZM1150.28 19.9318H1184.68V187.109C1184.68 193.783 1185.68 198.807 1187.67 202.182C1189.67 205.48 1192.24 207.743 1195.38 208.97C1198.6 210.121 1202.09 210.696 1205.85 210.696C1208.61 210.696 1211.03 210.504 1213.1 210.121C1215.17 209.737 1216.78 209.43 1217.93 209.2L1224.14 237.619C1222.15 238.386 1219.31 239.153 1215.63 239.92C1211.95 240.764 1207.35 241.224 1201.82 241.301C1192.77 241.455 1184.33 239.844 1176.51 236.469C1168.69 233.094 1162.36 227.878 1157.53 220.821C1152.69 213.764 1150.28 204.905 1150.28 194.243V19.9318Z" fill="white"/>
</g>
<path d="M138.555 65.2642L137.561 65.3762L137.661 66.2642H138.555V65.2642ZM123.367 39.9517L122.804 40.7782L122.809 40.7815L123.367 39.9517ZM64.6882 35.4645L65.0785 36.3852L65.0869 36.3815L64.6882 35.4645ZM48.2351 47.8906L47.4309 47.2962L47.4294 47.2982L48.2351 47.8906ZM46.3942 80.2216L45.5524 80.7616L45.5597 80.7726L46.3942 80.2216ZM56.8643 90.4616L56.3236 91.3028L56.3323 91.3084L56.3411 91.3138L56.8643 90.4616ZM70.9013 97.25L70.5549 98.1882L70.5677 98.1927L70.9013 97.25ZM85.2834 101.622L85.535 100.654L85.5259 100.652L85.2834 101.622ZM108.295 107.605L108.043 108.573L108.05 108.575L108.057 108.576L108.295 107.605ZM169.735 146.609L168.857 147.088L168.861 147.095L169.735 146.609ZM165.708 209.43L164.876 208.876L164.873 208.88L165.708 209.43ZM135.908 233.938L135.491 233.029L135.489 233.03L135.908 233.938ZM43.0575 234.513L43.4561 233.596L43.0575 234.513ZM12.7976 210.696L11.9798 211.272L11.9818 211.274L12.7976 210.696ZM0.716621 173.878V172.878H-0.33889L-0.281921 173.932L0.716621 173.878ZM36.3842 173.878L37.381 173.797L37.3064 172.878H36.3842V173.878ZM44.6683 195.163L43.9069 195.812L43.9116 195.817L43.9164 195.823L44.6683 195.163ZM63.4226 207.705L63.0808 208.644L63.0922 208.648L63.4226 207.705ZM115.428 207.014L115.801 207.942L115.806 207.94L115.428 207.014ZM134.067 193.668L134.849 194.291L134.853 194.286L134.067 193.668ZM134.873 156.389L134.122 157.05L134.128 157.057L134.873 156.389ZM118.88 145.344L118.48 146.26L118.484 146.262L118.88 145.344ZM96.2138 137.635L95.9507 138.6L95.9588 138.602L96.2138 137.635ZM68.37 130.041L68.6331 129.076L68.6328 129.076L68.37 130.041ZM23.4979 107.375L22.8252 108.115L22.8278 108.117L23.4979 107.375ZM18.0902 32.2429L17.2815 31.6547L18.0902 32.2429ZM48.005 8.65625L48.4116 9.56985L48.4163 9.56776L48.005 8.65625ZM132.802 8.54119L132.385 9.44999L132.387 9.45097L132.802 8.54119ZM161.796 31.6676L160.984 32.2512L160.986 32.2543L161.796 31.6676ZM172.842 65.2642V66.2642H173.866L173.841 65.24L172.842 65.2642ZM139.548 65.1522C138.289 53.976 133.073 45.2727 123.925 39.1218L122.809 40.7815C131.457 46.5966 136.366 54.7683 137.561 65.3762L139.548 65.1522ZM123.93 39.1252C114.829 32.9268 103.42 29.8622 89.7706 29.8622V31.8622C103.121 31.8622 114.11 34.8573 122.804 40.7782L123.93 39.1252ZM89.7706 29.8622C80.0026 29.8622 71.4999 31.4124 64.2895 34.5474L65.0869 36.3815C71.9901 33.3802 80.2091 31.8622 89.7706 31.8622V29.8622ZM64.2979 34.5438C57.1039 37.5934 51.4656 41.8376 47.4309 47.2962L49.0393 48.485C52.8285 43.3584 58.1589 39.3185 65.0785 36.3852L64.2979 34.5438ZM47.4294 47.2982C43.4639 52.6914 41.4823 58.845 41.4823 65.7244H43.4823C43.4823 59.2572 45.3359 53.5216 49.0407 48.483L47.4294 47.2982ZM41.4823 65.7244C41.4823 71.4841 42.8255 76.5107 45.5525 80.7615L47.2359 79.6816C44.7469 75.8018 43.4823 71.1636 43.4823 65.7244H41.4823ZM45.5597 80.7726C48.3247 84.9596 51.9169 88.4699 56.3236 91.3028L57.4051 89.6205C53.2209 86.9306 49.833 83.6142 47.2286 79.6705L45.5597 80.7726ZM56.3411 91.3138C60.7712 94.0341 65.5097 96.3252 70.5549 98.1881L71.2477 96.3119C66.3213 94.4929 61.7018 92.2585 57.3876 89.6095L56.3411 91.3138ZM70.5677 98.1927C75.58 99.9663 80.4046 101.433 85.0408 102.592L85.5259 100.652C80.9577 99.5099 76.1941 98.0621 71.2349 96.3073L70.5677 98.1927ZM85.0318 102.59L108.043 108.573L108.546 106.637L85.535 100.654L85.0318 102.59ZM108.057 108.576C115.525 110.405 123.19 112.883 131.051 116.013L131.791 114.155C123.852 110.994 116.099 108.487 108.533 106.634L108.057 108.576ZM131.051 116.013C138.868 119.124 146.114 123.221 152.791 128.306L154.003 126.714C147.18 121.52 139.776 117.333 131.791 114.155L131.051 116.013ZM152.791 128.306C159.427 133.358 164.781 139.616 168.857 147.088L170.613 146.131C166.405 138.416 160.867 131.94 154.003 126.714L152.791 128.306ZM168.861 147.095C172.981 154.511 175.063 163.426 175.063 173.878H177.063C177.063 163.16 174.927 153.895 170.609 146.124L168.861 147.095ZM175.063 173.878C175.063 187.042 171.662 198.697 164.876 208.876L166.54 209.985C173.561 199.454 177.063 187.407 177.063 173.878H175.063ZM164.873 208.88C158.165 219.056 148.388 227.111 135.491 233.029L136.325 234.846C149.508 228.798 159.598 220.515 166.543 209.981L164.873 208.88ZM135.489 233.03C122.69 238.937 107.155 241.912 88.8501 241.912V243.912C107.364 243.912 123.201 240.904 136.327 234.845L135.489 233.03ZM88.8501 241.912C71.3113 241.912 56.1889 239.128 43.4561 233.596L42.659 235.43C55.6989 241.096 71.1049 243.912 88.8501 243.912V241.912ZM43.4561 233.596C30.7173 228.06 20.7829 220.23 13.6134 210.118L11.9818 211.274C19.3861 221.718 29.625 229.766 42.659 235.43L43.4561 233.596ZM13.6154 210.121C6.44926 199.937 2.47336 187.85 1.71516 173.824L-0.281921 173.932C0.493973 188.286 4.57204 200.745 11.9798 211.272L13.6154 210.121ZM0.716621 174.878H36.3842V172.878H0.716621V174.878ZM35.3875 173.959C36.0922 182.65 38.9192 189.953 43.9069 195.812L45.4298 194.515C40.7526 189.021 38.0569 182.134 37.381 173.797L35.3875 173.959ZM43.9164 195.823C48.9457 201.559 55.3427 205.83 63.0808 208.644L63.7643 206.765C56.3149 204.056 50.2091 199.966 45.4203 194.504L43.9164 195.823ZM63.0922 208.648C70.8811 211.375 79.3934 212.732 88.62 212.732V210.732C79.591 210.732 71.305 209.404 63.7529 206.761L63.0922 208.648ZM88.62 212.732C98.7721 212.732 107.838 211.143 115.801 207.942L115.055 206.086C107.37 209.175 98.5645 210.732 88.62 210.732V212.732ZM115.806 207.94C123.837 204.665 130.2 200.123 134.849 194.291L133.286 193.044C128.884 198.565 122.821 202.92 115.051 206.088L115.806 207.94ZM134.853 194.286C139.525 188.348 141.856 181.416 141.856 173.533H139.856C139.856 180.99 137.661 187.482 133.282 193.049L134.853 194.286ZM141.856 173.533C141.856 166.35 139.798 160.384 135.617 155.722L134.128 157.057C137.925 161.292 139.856 166.755 139.856 173.533H141.856ZM135.624 155.729C131.594 151.145 126.13 147.385 119.276 144.426L118.484 146.262C125.13 149.132 130.328 152.735 134.122 157.05L135.624 155.729ZM119.28 144.427C112.552 141.488 104.946 138.903 96.4687 136.668L95.9588 138.602C104.356 140.816 111.862 143.369 118.48 146.26L119.28 144.427ZM96.4769 136.67L68.6331 129.076L68.1069 131.006L95.9507 138.6L96.4769 136.67ZM68.6328 129.076C49.8691 123.966 35.0663 116.471 24.168 106.633L22.8278 108.117C34.0204 118.222 49.1323 125.838 68.1072 131.006L68.6328 129.076ZM24.1705 106.635C13.4339 96.8745 8.04475 83.9622 8.04475 67.7954H6.04475C6.04475 84.4583 11.6243 97.9323 22.8252 108.115L24.1705 106.635ZM8.04475 67.7954C8.04475 54.4112 11.6702 42.7705 18.8989 32.8311L17.2815 31.6547C9.78288 41.9653 6.04475 54.0262 6.04475 67.7954H8.04475ZM18.8989 32.8311C26.1493 22.8618 35.9759 15.1052 48.4116 9.56983L47.5983 7.74267C34.875 13.4061 24.7584 21.374 17.2815 31.6547L18.8989 32.8311ZM48.4163 9.56776C60.8491 3.95782 74.8962 1.14204 90.576 1.14204V-0.857964C74.6535 -0.857964 60.32 2.0024 47.5937 7.74474L48.4163 9.56776ZM90.576 1.14204C106.413 1.14204 120.342 3.92092 132.385 9.44998L133.219 7.63239C120.87 1.96259 106.648 -0.857964 90.576 -0.857964V1.14204ZM132.387 9.45097C144.52 14.9867 154.04 22.5903 160.984 32.2512L162.608 31.084C155.438 21.1085 145.629 13.2946 133.217 7.63141L132.387 9.45097ZM160.986 32.2543C167.918 41.8229 171.54 52.8233 171.842 65.2884L173.841 65.24C173.53 52.3926 169.788 40.9952 162.606 31.0809L160.986 32.2543ZM172.842 64.2642H138.555V66.2642H172.842V64.2642ZM327.737 165.709H326.737L326.737 165.716L327.737 165.709ZM327.737 62.2727V61.2727H326.737V62.2727H327.737ZM362.254 62.2727H363.254V61.2727H362.254V62.2727ZM362.254 239V240H363.254V239H362.254ZM328.427 239H327.427V240H328.427V239ZM328.427 208.395H329.427V207.395H328.427V208.395ZM326.586 208.395V207.395H325.928L325.668 207.999L326.586 208.395ZM307.027 231.982L307.599 232.801L307.601 232.8L307.027 231.982ZM243.63 233.822L243.126 234.686L243.135 234.691L243.63 233.822ZM223.15 211.386L222.254 211.831L222.257 211.836L223.15 211.386ZM215.787 62.2727V61.2727H214.787V62.2727H215.787ZM250.189 62.2727H251.189V61.2727H250.189V62.2727ZM260.199 199.305L260.929 198.622L260.199 199.305ZM305.416 205.173L304.969 204.279L304.964 204.281L305.416 205.173ZM321.409 190.561L320.574 190.011L320.569 190.018L321.409 190.561ZM328.737 165.709V62.2727H326.737V165.709H328.737ZM327.737 63.2727H362.254V61.2727H327.737V63.2727ZM361.254 62.2727V239H363.254V62.2727H361.254ZM362.254 238H328.427V240H362.254V238ZM329.427 239V208.395H327.427V239H329.427ZM328.427 207.395H326.586V209.395H328.427V207.395ZM325.668 207.999C321.681 217.252 315.286 224.972 306.453 231.163L307.601 232.8C316.716 226.412 323.361 218.407 327.505 208.791L325.668 207.999ZM306.454 231.162C297.759 237.234 286.887 240.301 273.775 240.301V242.301C287.204 242.301 298.499 239.156 307.599 232.801L306.454 231.162ZM273.775 240.301C262.574 240.301 252.701 237.843 244.126 232.954L243.135 234.691C252.049 239.774 262.272 242.301 273.775 242.301V240.301ZM244.135 232.959C235.651 228.004 228.952 220.677 224.043 210.936L222.257 211.836C227.321 221.885 234.274 229.516 243.126 234.686L244.135 232.959ZM224.046 210.942C219.224 201.222 216.787 189.15 216.787 174.683H214.787C214.787 189.364 217.258 201.761 222.254 211.831L224.046 210.942ZM216.787 174.683V62.2727H214.787V174.683H216.787ZM215.787 63.2727H250.189V61.2727H215.787V63.2727ZM249.189 62.2727V170.541H251.189V62.2727H249.189ZM249.189 170.541C249.189 182.775 252.583 192.629 259.468 199.989L260.929 198.622C254.467 191.715 251.189 182.392 251.189 170.541H249.189ZM259.468 199.989C266.349 207.344 275.291 211.006 286.201 211.006V209.006C275.788 209.006 267.395 205.534 260.929 198.622L259.468 199.989ZM286.201 211.006C292.818 211.006 299.376 209.35 305.867 206.066L304.964 204.281C298.723 207.44 292.471 209.006 286.201 209.006V211.006ZM305.863 206.068C312.478 202.76 317.94 197.762 322.248 191.104L320.569 190.018C316.44 196.4 311.24 201.143 304.969 204.279L305.863 206.068ZM322.244 191.111C326.676 184.384 328.815 175.891 328.737 165.701L326.737 165.716C326.813 175.623 324.733 183.698 320.574 190.011L322.244 191.111ZM408.478 305.273H407.478V306.273H408.478V305.273ZM408.478 62.2727V61.2727H407.478V62.2727H408.478ZM442.075 62.2727H443.075V61.2727H442.075V62.2727ZM442.075 90.9219H441.075V91.9219H442.075V90.9219ZM444.951 90.9219V91.9219H445.547L445.83 91.3982L444.951 90.9219ZM453.58 78.1506L454.37 78.7645L453.58 78.1506ZM469.228 65.4943L469.703 66.3742L469.711 66.3699L469.228 65.4943ZM533.89 70.7869L533.349 71.6277L533.89 70.7869ZM560.238 101.967L559.333 102.392L559.335 102.396L560.238 101.967ZM560.353 200.111L561.258 200.535L561.259 200.533L560.353 200.111ZM534.12 231.521L534.668 232.358L534.672 232.355L534.12 231.521ZM469.688 237.044L469.217 237.926L469.221 237.928L469.688 237.044ZM453.81 224.388L454.594 223.766L453.81 224.388ZM444.951 211.501L445.827 211.019L445.542 210.501H444.951V211.501ZM442.88 211.501V210.501H441.88V211.501H442.88ZM442.88 305.273V306.273H443.88V305.273H442.88ZM447.597 183.312L446.664 183.672L447.597 183.312ZM463.245 205.288L462.632 206.079L462.638 206.083L463.245 205.288ZM514.1 204.943L514.72 205.728L514.725 205.724L514.1 204.943ZM529.748 182.507L528.814 182.15L528.811 182.157L529.748 182.507ZM529.863 119.226L528.926 119.574L528.928 119.581L529.863 119.226ZM514.215 97.25L513.601 98.0394L513.605 98.0426L514.215 97.25ZM463.015 96.9048L462.418 96.1027L462.414 96.1059L463.015 96.9048ZM447.482 118.42L448.416 118.778L447.482 118.42ZM409.478 305.273V62.2727H407.478V305.273H409.478ZM408.478 63.2727H442.075V61.2727H408.478V63.2727ZM441.075 62.2727V90.9219H443.075V62.2727H441.075ZM442.075 91.9219H444.951V89.9219H442.075V91.9219ZM445.83 91.3982C447.789 87.7811 450.631 83.5714 454.37 78.7645L452.791 77.5366C449.013 82.3945 446.101 86.699 444.072 90.4456L445.83 91.3982ZM454.37 78.7645C458.025 74.0644 463.124 69.9286 469.703 66.3741L468.753 64.6145C461.986 68.2702 456.652 72.572 452.791 77.5366L454.37 78.7645ZM469.711 66.3699C476.186 62.7977 484.822 60.9716 495.691 60.9716V58.9716C484.623 58.9716 475.617 60.8273 468.745 64.6187L469.711 66.3699ZM495.691 60.9716C509.78 60.9716 522.323 64.5289 533.349 71.6277L534.431 69.9461C523.059 62.6245 510.136 58.9716 495.691 58.9716V60.9716ZM533.349 71.6277C544.37 78.7238 553.036 88.9634 559.333 102.392L561.143 101.543C554.707 87.8179 545.807 77.2705 534.431 69.9461L533.349 71.6277ZM559.335 102.396C565.699 115.808 568.903 131.992 568.903 150.982H570.903C570.903 131.773 567.663 115.28 561.141 101.539L559.335 102.396ZM568.903 150.982C568.903 169.973 565.737 186.198 559.447 199.688L561.259 200.533C567.702 186.717 570.903 170.189 570.903 150.982H568.903ZM559.448 199.686C553.149 213.118 544.519 223.437 533.568 230.688L534.672 232.355C545.966 224.878 554.824 214.257 561.258 200.535L559.448 199.686ZM533.572 230.685C522.625 237.857 510.123 241.452 496.036 241.452V243.452C510.483 243.452 523.371 239.759 534.668 232.358L533.572 230.685ZM496.036 241.452C485.4 241.452 476.793 239.665 470.155 236.16L469.221 237.928C476.237 241.633 485.195 243.452 496.036 243.452V241.452ZM470.159 236.162C463.502 232.606 458.326 228.469 454.594 223.766L453.027 225.009C456.965 229.972 462.375 234.272 469.217 237.926L470.159 236.162ZM454.594 223.766C450.779 218.96 447.862 214.712 445.827 211.019L444.075 211.984C446.182 215.807 449.171 220.151 453.027 225.009L454.594 223.766ZM444.951 210.501H442.88V212.501H444.951V210.501ZM441.88 211.501V305.273H443.88V211.501H441.88ZM442.88 304.273H408.478V306.273H442.88V304.273ZM441.19 150.636C441.19 163.157 443.006 174.176 446.664 183.672L448.53 182.953C444.979 173.734 443.19 162.968 443.19 150.636H441.19ZM446.664 183.672C450.324 193.172 455.64 200.657 462.632 206.079L463.858 204.498C457.197 199.334 452.081 192.169 448.53 182.953L446.664 183.672ZM462.638 206.083C469.665 211.452 478.248 214.112 488.327 214.112V212.112C478.617 212.112 470.479 209.557 463.852 204.494L462.638 206.083ZM488.327 214.112C498.791 214.112 507.611 211.336 514.719 205.728L513.481 204.158C506.783 209.442 498.421 212.112 488.327 212.112V214.112ZM514.725 205.724C521.788 200.074 527.102 192.437 530.685 182.857L528.811 182.157C525.337 191.446 520.219 198.767 513.475 204.162L514.725 205.724ZM530.682 182.864C534.337 173.298 536.156 162.551 536.156 150.636H534.156C534.156 162.347 532.369 172.847 528.814 182.15L530.682 182.864ZM536.156 150.636C536.156 138.877 534.376 128.283 530.798 118.87L528.928 119.581C532.407 128.731 534.156 139.078 534.156 150.636H536.156ZM530.8 118.877C527.292 109.443 521.972 101.955 514.825 96.4574L513.605 98.0426C520.419 103.284 525.531 110.446 528.926 119.574L530.8 118.877ZM514.829 96.4606C507.719 90.9308 498.862 88.196 488.327 88.196V90.196C498.503 90.196 506.904 92.8305 513.601 98.0394L514.829 96.4606ZM488.327 88.196C478.176 88.196 469.52 90.8153 462.418 96.1027L463.612 97.707C470.316 92.7159 478.536 90.196 488.327 90.196V88.196ZM462.414 96.1059C455.415 101.374 450.134 108.71 446.549 118.063L448.416 118.778C451.888 109.722 456.961 102.714 463.616 97.7038L462.414 96.1059ZM446.549 118.063C442.967 127.405 441.19 138.27 441.19 150.636H443.19C443.19 138.457 444.941 127.844 448.416 118.778L446.549 118.063ZM608.447 305.273H607.447V306.273H608.447V305.273ZM608.447 62.2727V61.2727H607.447V62.2727H608.447ZM642.043 62.2727H643.043V61.2727H642.043V62.2727ZM642.043 90.9219H641.043V91.9219H642.043V90.9219ZM644.92 90.9219V91.9219H645.515L645.799 91.3982L644.92 90.9219ZM653.549 78.1506L654.338 78.7645L653.549 78.1506ZM669.197 65.4943L669.672 66.3742L669.68 66.3699L669.197 65.4943ZM733.859 70.7869L733.317 71.6277L733.859 70.7869ZM760.207 101.967L759.301 102.392L759.303 102.396L760.207 101.967ZM760.322 200.111L761.227 200.535L761.228 200.533L760.322 200.111ZM734.089 231.521L734.637 232.358L734.641 232.355L734.089 231.521ZM669.657 237.044L669.186 237.926L669.19 237.928L669.657 237.044ZM653.779 224.388L654.562 223.766L653.779 224.388ZM644.92 211.501L645.796 211.019L645.51 210.501H644.92V211.501ZM642.849 211.501V210.501H641.849V211.501H642.849ZM642.849 305.273V306.273H643.849V305.273H642.849ZM647.566 183.312L646.633 183.672L647.566 183.312ZM663.214 205.288L662.601 206.079L662.607 206.083L663.214 205.288ZM714.069 204.943L714.688 205.728L714.694 205.724L714.069 204.943ZM729.717 182.507L728.782 182.15L728.78 182.157L729.717 182.507ZM729.832 119.226L728.894 119.574L728.897 119.581L729.832 119.226ZM714.184 97.25L713.57 98.0394L713.574 98.0426L714.184 97.25ZM662.984 96.9048L662.387 96.1027L662.382 96.1059L662.984 96.9048ZM647.451 118.42L648.385 118.778L647.451 118.42ZM609.447 305.273V62.2727H607.447V305.273H609.447ZM608.447 63.2727H642.043V61.2727H608.447V63.2727ZM641.043 62.2727V90.9219H643.043V62.2727H641.043ZM642.043 91.9219H644.92V89.9219H642.043V91.9219ZM645.799 91.3982C647.758 87.7811 650.6 83.5714 654.338 78.7645L652.76 77.5366C648.981 82.3945 646.07 86.699 644.04 90.4456L645.799 91.3982ZM654.338 78.7645C657.994 74.0644 663.092 69.9286 669.672 66.3741L668.721 64.6145C661.954 68.2702 656.621 72.572 652.76 77.5366L654.338 78.7645ZM669.68 66.3699C676.154 62.7977 684.79 60.9716 695.66 60.9716V58.9716C684.592 58.9716 675.586 60.8273 668.714 64.6187L669.68 66.3699ZM695.66 60.9716C709.749 60.9716 722.292 64.5289 733.317 71.6277L734.4 69.9461C723.028 62.6245 710.105 58.9716 695.66 58.9716V60.9716ZM733.317 71.6277C744.339 78.7238 753.004 88.9634 759.301 102.392L761.112 101.543C754.676 87.8179 745.776 77.2705 734.4 69.9461L733.317 71.6277ZM759.303 102.396C765.668 115.808 768.871 131.992 768.871 150.982H770.871C770.871 131.773 767.632 115.28 761.11 101.539L759.303 102.396ZM768.871 150.982C768.871 169.973 765.706 186.198 759.415 199.688L761.228 200.533C767.67 186.717 770.871 170.189 770.871 150.982H768.871ZM759.416 199.686C753.118 213.118 744.487 223.437 733.537 230.688L734.641 232.355C745.935 224.878 754.793 214.257 761.227 200.535L759.416 199.686ZM733.541 230.685C722.593 237.857 710.092 241.452 696.005 241.452V243.452C710.452 243.452 723.34 239.759 734.637 232.358L733.541 230.685ZM696.005 241.452C685.369 241.452 676.762 239.665 670.124 236.16L669.19 237.928C676.206 241.633 685.164 243.452 696.005 243.452V241.452ZM670.128 236.162C663.471 232.606 658.295 228.469 654.562 223.766L652.996 225.009C656.934 229.972 662.343 234.272 669.186 237.926L670.128 236.162ZM654.562 223.766C650.748 218.96 647.831 214.712 645.796 211.019L644.044 211.984C646.151 215.807 649.14 220.151 652.996 225.009L654.562 223.766ZM644.92 210.501H642.849V212.501H644.92V210.501ZM641.849 211.501V305.273H643.849V211.501H641.849ZM642.849 304.273H608.447V306.273H642.849V304.273ZM641.158 150.636C641.158 163.157 642.974 174.176 646.633 183.672L648.499 182.953C644.947 173.734 643.158 162.968 643.158 150.636H641.158ZM646.633 183.672C650.293 193.172 655.608 200.657 662.601 206.079L663.826 204.498C657.166 199.334 652.049 192.169 648.499 182.953L646.633 183.672ZM662.607 206.083C669.633 211.452 678.217 214.112 688.296 214.112V212.112C678.586 212.112 670.448 209.557 663.821 204.494L662.607 206.083ZM688.296 214.112C698.76 214.112 707.58 211.336 714.688 205.728L713.45 204.158C706.751 209.442 698.389 212.112 688.296 212.112V214.112ZM714.694 205.724C721.757 200.074 727.071 192.437 730.653 182.857L728.78 182.157C725.306 191.446 720.188 198.767 713.444 204.162L714.694 205.724ZM730.651 182.864C734.306 173.298 736.124 162.551 736.124 150.636H734.124C734.124 162.347 732.337 172.847 728.782 182.15L730.651 182.864ZM736.124 150.636C736.124 138.877 734.345 128.283 730.766 118.87L728.897 119.581C732.375 128.731 734.124 139.078 734.124 150.636H736.124ZM730.769 118.877C727.26 109.443 721.94 101.955 714.794 96.4574L713.574 98.0426C720.388 103.284 725.5 110.446 728.894 119.574L730.769 118.877ZM714.798 96.4606C707.688 90.9308 698.831 88.196 688.296 88.196V90.196C698.471 90.196 706.873 92.8305 713.57 98.0394L714.798 96.4606ZM688.296 88.196C678.145 88.196 669.489 90.8153 662.387 96.1027L663.581 97.707C670.285 92.7159 678.504 90.196 688.296 90.196V88.196ZM662.382 96.1059C655.384 101.374 650.102 108.71 646.517 118.063L648.385 118.778C651.857 109.722 656.93 102.714 663.585 97.7038L662.382 96.1059ZM646.517 118.063C642.936 127.405 641.158 138.27 641.158 150.636H643.158C643.158 138.457 644.909 127.844 648.385 118.778L646.517 118.063ZM810.717 199.305L811.611 198.858L810.717 199.305ZM839.481 71.3622L840.005 72.2141L839.481 71.3622ZM926.234 71.3622L925.71 72.2141L926.234 71.3622ZM954.998 199.305L954.103 198.858L954.998 199.305ZM926.234 231.176L926.757 232.028L926.234 231.176ZM909.665 205.173L909.039 204.394L909.665 205.173ZM925.313 182.507L924.374 182.164L924.372 182.17L925.313 182.507ZM925.313 120.261L924.371 120.596L924.374 120.605L925.313 120.261ZM909.665 97.3651L909.034 98.1401L909.665 97.3651ZM856.049 97.3651L855.421 96.5866L855.417 96.59L856.049 97.3651ZM840.286 120.261L839.346 119.92L839.345 119.925L840.286 120.261ZM840.286 182.507L839.345 182.844L839.347 182.851L840.286 182.507ZM856.049 205.173L855.422 205.953L855.426 205.956L856.049 205.173ZM882.857 241.567C866.447 241.567 852.175 237.808 840.005 230.324L838.957 232.028C851.486 239.732 866.131 243.567 882.857 243.567V241.567ZM840.005 230.324C827.823 222.833 818.359 212.354 811.611 198.858L809.822 199.753C816.728 213.564 826.44 224.331 838.957 232.028L840.005 230.324ZM811.611 198.858C804.866 185.368 801.477 169.572 801.477 151.442H799.477C799.477 169.823 802.914 185.936 809.822 199.753L811.611 198.858ZM801.477 151.442C801.477 133.234 804.866 117.36 811.612 103.793L809.821 102.903C802.914 116.796 799.477 132.985 799.477 151.442H801.477ZM811.612 103.793C818.36 90.2206 827.824 79.704 840.005 72.2141L838.957 70.5104C826.439 78.2079 816.726 89.0151 809.821 102.903L811.612 103.793ZM840.005 72.2141C852.175 64.7304 866.447 60.9716 882.857 60.9716V58.9716C866.131 58.9716 851.486 62.8065 838.957 70.5104L840.005 72.2141ZM882.857 60.9716C899.267 60.9716 913.539 64.7304 925.71 72.2141L926.757 70.5104C914.229 62.8065 899.583 58.9716 882.857 58.9716V60.9716ZM925.71 72.2141C937.89 79.704 947.354 90.2206 954.102 103.793L955.893 102.903C948.988 89.0151 939.276 78.2079 926.757 70.5104L925.71 72.2141ZM954.102 103.793C960.848 117.36 964.238 133.234 964.238 151.442H966.238C966.238 132.985 962.801 116.796 955.893 102.903L954.102 103.793ZM964.238 151.442C964.238 169.572 960.848 185.368 954.103 198.858L955.892 199.753C962.801 185.936 966.238 169.823 966.238 151.442H964.238ZM954.103 198.858C947.355 212.354 937.892 222.833 925.71 230.324L926.757 232.028C939.274 224.331 948.987 213.564 955.892 199.753L954.103 198.858ZM925.71 230.324C913.539 237.808 899.267 241.567 882.857 241.567V243.567C899.583 243.567 914.229 239.732 926.757 232.028L925.71 230.324ZM882.972 214.688C893.895 214.688 903.026 211.797 910.292 205.953L909.039 204.394C902.191 209.902 893.527 212.688 882.972 212.688V214.688ZM910.292 205.953C917.508 200.149 922.824 192.433 926.255 182.844L924.372 182.17C921.052 191.45 915.937 198.846 909.039 204.394L910.292 205.953ZM926.252 182.851C929.749 173.293 931.491 162.781 931.491 151.327H929.491C929.491 162.577 927.781 172.852 924.374 182.164L926.252 182.851ZM931.491 151.327C931.491 139.948 929.749 129.475 926.252 119.918L924.374 120.605C927.781 129.917 929.491 140.154 929.491 151.327H931.491ZM926.256 119.927C922.826 110.262 917.511 102.471 910.297 96.59L909.034 98.1401C915.933 103.765 921.05 111.238 924.371 120.596L926.256 119.927ZM910.297 96.59C903.031 90.6665 893.898 87.7358 882.972 87.7358V89.7358C893.524 89.7358 902.186 92.5579 909.034 98.1401L910.297 96.59ZM882.972 87.7358C871.971 87.7358 862.763 90.6656 855.421 96.5866L856.677 98.1435C863.602 92.5588 872.342 89.7358 882.972 89.7358V87.7358ZM855.417 96.59C848.205 102.469 842.852 110.258 839.346 119.92L841.226 120.602C844.623 111.242 849.779 103.766 856.681 98.1401L855.417 96.59ZM839.345 119.925C835.926 129.48 834.224 139.951 834.224 151.327H836.224C836.224 140.152 837.896 129.912 841.228 120.598L839.345 119.925ZM834.224 151.327C834.224 162.779 835.926 173.288 839.345 182.844L841.228 182.17C837.896 172.857 836.224 162.579 836.224 151.327H834.224ZM839.347 182.851C842.854 192.437 848.208 200.15 855.422 205.953L856.676 204.394C849.776 198.844 844.622 191.446 841.225 182.164L839.347 182.851ZM855.426 205.956C862.768 211.798 871.975 214.688 882.972 214.688V212.688C872.339 212.688 863.597 209.901 856.672 204.391L855.426 205.956ZM1003.64 239H1002.64V240H1003.64V239ZM1003.64 62.2727V61.2727H1002.64V62.2727H1003.64ZM1036.89 62.2727H1037.89V61.2727H1036.89V62.2727ZM1036.89 90.3466H1035.89V91.3466H1036.89V90.3466ZM1038.73 90.3466V91.3466H1039.45L1039.68 90.6674L1038.73 90.3466ZM1055.76 67.9105L1056.32 68.7413L1056.32 68.7402L1055.76 67.9105ZM1091.2 59.8565L1091.14 60.8551L1091.15 60.8552L1091.2 59.8565ZM1098.21 60.4318H1099.21V59.5589L1098.35 59.441L1098.21 60.4318ZM1098.21 93.3381L1097.95 94.3016L1099.21 94.6537V93.3381H1098.21ZM1090.85 92.0724L1090.7 93.0611L1090.71 93.0627L1090.72 93.064L1090.85 92.0724ZM1058.52 96.4446L1058.99 97.3258L1059 97.3237L1058.52 96.4446ZM1043.56 110.597L1044.41 111.121L1044.42 111.116L1043.56 110.597ZM1038.04 239V240H1039.04V239H1038.04ZM1004.64 239V62.2727H1002.64V239H1004.64ZM1003.64 63.2727H1036.89V61.2727H1003.64V63.2727ZM1035.89 62.2727V90.3466H1037.89V62.2727H1035.89ZM1036.89 91.3466H1038.73V89.3466H1036.89V91.3466ZM1039.68 90.6674C1042.83 81.3585 1048.37 74.0615 1056.32 68.7413L1055.2 67.0797C1046.88 72.6515 1041.07 80.3119 1037.78 90.0258L1039.68 90.6674ZM1056.32 68.7402C1064.35 63.3338 1073.44 60.6264 1083.6 60.6264V58.6264C1073.06 58.6264 1063.58 61.4417 1055.2 67.0808L1056.32 68.7402ZM1083.6 60.6264C1085.73 60.6264 1088.24 60.7024 1091.14 60.8551L1091.25 58.8579C1088.32 58.7039 1085.77 58.6264 1083.6 58.6264V60.6264ZM1091.15 60.8552C1094.13 61.0081 1096.43 61.1981 1098.08 61.4226L1098.35 59.441C1096.62 59.2053 1094.25 59.0118 1091.25 58.8578L1091.15 60.8552ZM1097.21 60.4318V93.3381H1099.21V60.4318H1097.21ZM1098.48 92.3745C1097.03 91.9699 1094.51 91.5408 1090.98 91.0808L1090.72 93.064C1094.25 93.5245 1096.64 93.9391 1097.95 94.3016L1098.48 92.3745ZM1091 91.0838C1087.42 90.5394 1083.85 90.267 1080.27 90.267V92.267C1083.74 92.267 1087.22 92.5316 1090.7 93.0611L1091 91.0838ZM1080.27 90.267C1071.99 90.267 1064.57 92.0251 1058.04 95.5655L1059 97.3237C1065.2 93.9607 1072.28 92.267 1080.27 92.267V90.267ZM1058.05 95.5634C1051.6 99.0222 1046.48 103.864 1042.71 110.077L1044.42 111.116C1048.01 105.21 1052.86 100.617 1058.99 97.3258L1058.05 95.5634ZM1042.71 110.072C1038.92 116.227 1037.04 123.239 1037.04 131.077H1039.04C1039.04 123.574 1040.84 116.932 1044.41 111.121L1042.71 110.072ZM1037.04 131.077V239H1039.04V131.077H1037.04ZM1038.04 238H1003.64V240H1038.04V238ZM1220.92 62.2727H1221.92V61.2727H1220.92V62.2727ZM1220.92 89.8864V90.8864H1221.92V89.8864H1220.92ZM1124.39 89.8864H1123.39V90.8864H1124.39V89.8864ZM1124.39 62.2727V61.2727H1123.39V62.2727H1124.39ZM1150.28 19.9318V18.9318H1149.28V19.9318H1150.28ZM1184.68 19.9318H1185.68V18.9318H1184.68V19.9318ZM1187.67 202.182L1186.81 202.691L1186.82 202.699L1187.67 202.182ZM1195.38 208.97L1195.02 209.902L1195.03 209.907L1195.04 209.912L1195.38 208.97ZM1213.1 210.121L1213.28 211.104L1213.1 210.121ZM1217.93 209.2L1218.91 208.987L1218.7 208.027L1217.74 208.22L1217.93 209.2ZM1224.14 237.619L1224.5 238.553L1225.3 238.244L1225.12 237.406L1224.14 237.619ZM1215.63 239.92L1215.43 238.941L1215.42 238.944L1215.41 238.946L1215.63 239.92ZM1201.82 241.301L1201.81 240.301L1201.81 240.301L1201.82 241.301ZM1176.51 236.469L1176.11 237.387L1176.51 236.469ZM1157.53 220.821L1156.7 221.386L1157.53 220.821ZM1219.92 62.2727V89.8864H1221.92V62.2727H1219.92ZM1220.92 88.8864H1124.39V90.8864H1220.92V88.8864ZM1125.39 89.8864V62.2727H1123.39V89.8864H1125.39ZM1124.39 63.2727H1220.92V61.2727H1124.39V63.2727ZM1150.28 20.9318H1184.68V18.9318H1150.28V20.9318ZM1183.68 19.9318V187.109H1185.68V19.9318H1183.68ZM1183.68 187.109C1183.68 193.851 1184.68 199.088 1186.81 202.691L1188.53 201.673C1186.67 198.526 1185.68 193.714 1185.68 187.109H1183.68ZM1186.82 202.699C1188.91 206.158 1191.64 208.583 1195.02 209.902L1195.74 208.039C1192.83 206.903 1190.42 204.802 1188.53 201.664L1186.82 202.699ZM1195.04 209.912C1198.38 211.105 1201.99 211.696 1205.85 211.696V209.696C1202.2 209.696 1198.82 209.137 1195.72 208.028L1195.04 209.912ZM1205.85 211.696C1208.66 211.696 1211.13 211.501 1213.28 211.104L1212.92 209.137C1210.92 209.507 1208.57 209.696 1205.85 209.696V211.696ZM1213.28 211.104C1215.35 210.72 1216.97 210.412 1218.13 210.181L1217.74 208.22C1216.59 208.448 1214.99 208.754 1212.92 209.137L1213.28 211.104ZM1216.95 209.414L1223.17 237.833L1225.12 237.406L1218.91 208.987L1216.95 209.414ZM1223.79 236.686C1221.87 237.424 1219.09 238.178 1215.43 238.941L1215.83 240.899C1219.54 240.128 1222.43 239.348 1224.5 238.553L1223.79 236.686ZM1215.41 238.946C1211.82 239.768 1207.29 240.225 1201.81 240.301L1201.84 242.301C1207.4 242.224 1212.08 241.76 1215.85 240.895L1215.41 238.946ZM1201.81 240.301C1192.89 240.452 1184.59 238.866 1176.91 235.551L1176.11 237.387C1184.08 240.822 1192.66 242.457 1201.84 242.301L1201.81 240.301ZM1176.91 235.551C1169.26 232.251 1163.08 227.158 1158.35 220.256L1156.7 221.386C1161.64 228.598 1168.12 233.937 1176.11 237.387L1176.91 235.551ZM1158.35 220.256C1153.66 213.403 1151.28 204.753 1151.28 194.243H1149.28C1149.28 205.056 1151.73 214.126 1156.7 221.386L1158.35 220.256ZM1151.28 194.243V19.9318H1149.28V194.243H1151.28Z" fill="#DADADA" mask="url(#path-1-outside-1_46_13832)"/>
<defs>
<filter id="filter0_i_46_13832" x="0.716797" y="0.141602" width="1229.43" height="311.131" filterUnits="userSpaceOnUse" color-interpolation-filters="sRGB">
<feFlood flood-opacity="0" result="BackgroundImageFix"/>
<feBlend mode="normal" in="SourceGraphic" in2="BackgroundImageFix" result="shape"/>
<feColorMatrix in="SourceAlpha" type="matrix" values="0 0 0 0 0 0 0 0 0 0 0 0 0 0 0 0 0 0 127 0" result="hardAlpha"/>
<feOffset dx="6" dy="6"/>
<feGaussianBlur stdDeviation="4"/>
<feComposite in2="hardAlpha" operator="arithmetic" k2="-1" k3="1"/>
<feColorMatrix type="matrix" values="0 0 0 0 0.00392157 0 0 0 0 0.00784314 0 0 0 0 0.00784314 0 0 0 0.1 0"/>
<feBlend mode="normal" in2="shape" result="effect1_innerShadow_46_13832"/>
</filter>
</defs>
</svg>
